<?xml version="1.0" standalone="no"?>
<!DOCTYPE svg PUBLIC "-//W3C//DTD SVG 20010904//EN"
 "http://www.w3.org/TR/2001/REC-SVG-20010904/DTD/svg10.dtd">
<svg version="1.0" xmlns="http://www.w3.org/2000/svg"
 width="1160.000000pt" height="387.000000pt" viewBox="0 0 1160.000000 387.000000"
 preserveAspectRatio="xMidYMid meet">

<g transform="translate(0.000000,387.000000) scale(0.100000,-0.100000)"
fill="#000000" stroke="none">
<path d="M0 1935 l0 -1935 5800 0 5800 0 0 1935 0 1935 -5800 0 -5800 0 0
-1935z m6344 1163 c23 -33 20 -131 -9 -305 -14 -81 -25 -151 -25 -155 0 -19
-36 -38 -70 -38 -34 0 -70 19 -70 38 0 4 -11 72 -25 152 -14 80 -25 178 -25
219 0 104 8 111 121 111 79 0 89 -2 103 -22z m1191 -362 c28 -13 61 -35 74
-49 l24 -26 -33 -28 c-54 -46 -59 -47 -87 -21 -20 19 -35 23 -88 23 -53 0 -67
-4 -89 -24 -55 -52 -58 -146 -6 -204 26 -30 33 -32 93 -32 55 0 69 4 91 24
l25 24 46 -37 c25 -21 45 -41 45 -46 0 -4 -18 -22 -41 -38 -114 -84 -303 -61
-386 46 -65 85 -67 220 -4 307 70 97 224 134 336 81z m3021 -4 c190 -97 190
-357 1 -454 -50 -25 -155 -35 -213 -19 -134 36 -216 169 -186 300 21 90 78
153 169 187 55 21 177 13 229 -14z m-2734 -146 c3 -158 4 -165 27 -190 19 -20
34 -26 65 -26 83 1 96 32 96 231 l0 149 71 0 71 0 -4 -177 c-4 -197 -9 -215
-72 -271 -41 -36 -91 -52 -161 -52 -70 0 -120 16 -161 52 -63 56 -68 74 -72
271 l-4 177 70 0 71 0 3 -164z m558 -81 l0 -245 -70 0 -70 0 0 245 0 245 70 0
70 0 0 -245z m480 209 c38 -22 64 -46 85 -79 27 -44 30 -57 30 -130 0 -73 -3
-86 -30 -130 -21 -33 -47 -57 -85 -79 -54 -31 -57 -31 -217 -34 l-163 -4 0
247 0 247 163 -4 c160 -3 163 -3 217 -34z m590 -200 c58 -130 107 -241 108
-245 2 -5 -30 -9 -70 -9 l-74 0 -21 50 -21 50 -100 0 -100 0 -18 -50 -18 -50
-74 0 c-56 0 -73 3 -69 13 3 6 52 117 108 245 l102 232 71 0 71 0 105 -236z
m530 200 c38 -22 64 -46 85 -79 27 -44 30 -57 30 -130 0 -73 -3 -86 -30 -130
-21 -33 -47 -57 -85 -79 -54 -31 -57 -31 -217 -34 l-163 -4 0 247 0 247 163
-4 c160 -3 163 -3 217 -34z m929 4 c0 -18 -6 -89 -12 -158 l-12 -125 -55 0
-55 0 -12 135 c-6 74 -12 145 -12 158 -1 21 2 22 79 22 l80 0 -1 -32z m-4601
-209 c4 -59 -10 -71 -80 -67 l-53 3 -3 44 c-5 68 -1 72 70 69 l63 -3 3 -46z
m4585 -140 c39 -48 2 -119 -63 -119 -39 0 -80 35 -80 69 0 71 96 105 143 50z
m-3443 -339 c66 -18 120 -93 120 -166 0 -75 -64 -156 -135 -170 -124 -23 -225
54 -225 171 0 124 111 201 240 165z m1203 -1 c39 -10 44 -23 26 -62 -10 -23
-13 -23 -47 -11 -50 18 -77 17 -92 -2 -19 -22 2 -38 72 -58 85 -24 116 -75 86
-140 -6 -14 -22 -33 -36 -42 -35 -23 -128 -29 -177 -11 -35 13 -40 18 -38 42
3 41 13 46 58 30 52 -19 90 -19 105 0 19 22 -2 41 -61 55 -71 17 -109 52 -109
99 0 88 95 133 213 100z m1134 0 c15 -6 38 -20 50 -31 l22 -20 -29 -25 c-28
-23 -31 -23 -52 -9 -27 19 -86 20 -109 3 -37 -28 -49 -84 -28 -130 15 -33 48
-49 90 -45 33 3 34 4 37 51 l3 47 40 0 39 0 0 -70 c0 -68 -1 -70 -32 -86 -17
-9 -56 -18 -87 -21 -110 -9 -191 64 -191 172 0 124 128 209 247 164z m353 1
c66 -18 120 -93 120 -166 0 -76 -64 -156 -135 -170 -122 -23 -225 55 -225 171
0 124 111 201 240 165z m-3036 -14 c44 -19 76 -61 76 -103 0 -79 -55 -123
-154 -123 l-56 0 0 -45 0 -45 -45 0 -45 0 0 165 0 165 95 0 c59 0 108 -5 129
-14z m773 -9 c53 -28 78 -73 78 -142 0 -47 -5 -67 -23 -93 -39 -53 -73 -66
-199 -70 l-113 -4 0 167 0 167 113 -4 c80 -3 121 -9 144 -21z m383 -12 l0 -34
-82 -3 c-82 -3 -83 -3 -86 -30 l-3 -28 75 0 76 0 0 -35 0 -35 -75 0 -75 0 0
-30 0 -30 85 0 85 0 0 -35 0 -35 -130 0 -130 0 0 165 0 165 130 0 130 0 0 -35z
m750 0 l0 -35 -85 0 -85 0 0 -30 0 -30 75 0 75 0 0 -35 0 -35 -75 0 -75 0 0
-30 0 -30 85 0 85 0 0 -35 0 -35 -130 0 -130 0 0 165 0 165 130 0 130 0 0 -35z
m277 24 c86 -32 111 -135 47 -194 l-26 -24 31 -45 c17 -24 31 -47 31 -50 0 -3
-20 -6 -45 -6 -42 0 -48 3 -77 45 -25 35 -38 45 -60 45 -27 0 -28 -2 -28 -45
l0 -45 -45 0 -45 0 0 165 0 165 94 0 c52 0 107 -5 123 -11z m1103 -119 l0
-130 80 0 80 0 0 -35 0 -35 -125 0 -125 0 0 165 0 165 45 0 45 0 0 -130z m424
116 c66 -27 94 -97 64 -160 -17 -39 -57 -59 -128 -65 l-65 -6 -3 -42 -3 -43
-45 0 -44 0 0 165 0 165 95 0 c59 0 108 -5 129 -14z m376 -21 l0 -35 -85 0
-85 0 0 -30 0 -30 75 0 75 0 0 -35 0 -35 -75 0 -75 0 0 -30 0 -30 85 0 85 0 0
-35 0 -35 -130 0 -130 0 0 165 0 165 130 0 130 0 0 -35z m-904 -781 c8 3 14 1
14 -5 0 -16 -29 -22 -45 -9 -12 10 -18 10 -30 0 -18 -15 -20 1 -3 18 8 8 17 8
30 1 11 -6 26 -8 34 -5z m-2496 -139 l0 -95 60 0 c33 0 60 -4 60 -10 0 -6 -30
-10 -70 -10 l-70 0 0 105 c0 63 4 105 10 105 6 0 10 -38 10 -95z m300 85 c0
-6 -28 -10 -65 -10 l-65 0 0 -35 0 -35 55 0 c30 0 55 -4 55 -10 0 -5 -25 -10
-55 -10 l-55 0 0 -40 0 -40 65 0 c37 0 65 -4 65 -10 0 -6 -32 -10 -75 -10
l-75 0 0 105 0 105 75 0 c43 0 75 -4 75 -10z m70 -95 c0 -63 -4 -105 -10 -105
-6 0 -10 42 -10 105 0 63 4 105 10 105 6 0 10 -42 10 -105z m190 33 c63 -143
62 -138 46 -138 -8 0 -19 14 -25 30 -10 29 -12 30 -68 30 -56 0 -59 -1 -70
-30 -10 -27 -33 -42 -33 -21 0 22 92 201 104 201 7 0 28 -33 46 -72z m305 -24
c25 -54 45 -101 45 -105 0 -21 -23 -6 -33 21 -11 29 -14 30 -70 30 -56 0 -58
-1 -68 -30 -6 -16 -17 -30 -25 -30 -12 0 -12 5 0 33 57 132 81 177 92 177 8 0
34 -43 59 -96z m314 82 c67 -35 67 -147 0 -182 -16 -8 -55 -14 -89 -14 l-60 0
0 105 0 105 60 0 c34 0 73 -6 89 -14z m241 4 c0 -6 -27 -10 -60 -10 l-60 0 0
-35 0 -35 55 0 c30 0 55 -4 55 -10 0 -5 -25 -10 -55 -10 l-55 0 0 -40 0 -40
65 0 c37 0 65 -4 65 -10 0 -6 -32 -10 -75 -10 l-75 0 0 105 0 105 70 0 c40 0
70 -4 70 -10z m164 4 c30 -12 16 -24 -21 -18 -26 4 -44 1 -58 -10 -28 -21 -11
-46 45 -62 46 -14 60 -27 60 -58 0 -31 -30 -56 -66 -56 -36 0 -84 18 -84 32 0
11 7 10 46 -4 26 -9 39 -9 59 0 41 19 28 43 -35 67 -47 18 -55 25 -58 49 -6
51 53 83 112 60z m222 -8 c24 -18 13 -31 -14 -17 -57 31 -126 -10 -126 -74 0
-29 7 -43 29 -62 28 -25 48 -26 115 -8 l25 7 -24 -21 c-43 -39 -130 -22 -157
30 -27 54 -11 119 37 145 32 18 90 17 115 0z m214 -6 c31 -31 30 -75 -1 -102
l-21 -18 21 -29 c23 -32 26 -41 11 -41 -5 0 -20 16 -32 35 -20 29 -29 35 -60
35 -37 0 -38 -1 -38 -35 0 -19 -4 -35 -10 -35 -6 0 -10 42 -10 105 l0 105 60
0 c47 0 64 -4 80 -20z m100 -85 c0 -63 -4 -105 -10 -105 -6 0 -10 42 -10 105
0 63 4 105 10 105 6 0 10 -42 10 -105z m216 91 c24 -18 13 -31 -14 -17 -36 19
-72 13 -103 -18 -38 -39 -38 -74 1 -113 31 -31 59 -34 114 -12 14 5 17 3 14
-7 -3 -8 -18 -18 -34 -24 -39 -12 -39 -12 -25 -29 17 -21 5 -36 -27 -35 -24 2
-24 2 -4 6 22 4 32 23 12 23 -5 0 -10 6 -10 14 0 7 -14 19 -30 26 -42 17 -60
47 -60 95 0 41 19 74 55 93 28 16 88 15 111 -2z m190 -89 c50 -111 48 -107 31
-107 -7 0 -18 14 -24 30 -11 28 -14 30 -68 30 -53 0 -57 -1 -66 -30 -6 -16
-17 -30 -25 -30 -12 0 -12 5 0 33 55 130 80 178 93 175 8 -2 34 -47 59 -101z
m233 89 c30 -16 51 -53 51 -91 0 -81 -86 -129 -165 -93 -49 22 -69 96 -41 147
27 48 99 65 155 37z m-2993 -17 c3 -6 -10 -28 -30 -48 l-36 -37 30 -29 c31
-29 40 -65 17 -65 -7 0 -34 22 -61 49 l-47 48 48 46 c49 48 67 56 79 36z m94
-6 c0 -9 -14 -31 -30 -48 l-30 -31 30 -29 c34 -32 40 -65 12 -65 -18 0 -102
78 -102 95 0 5 19 29 42 52 44 44 78 56 78 26z"/>
<path d="M10352 2620 c-113 -69 -60 -250 73 -250 52 0 102 31 121 75 40 97
-20 195 -121 195 -23 0 -54 -9 -73 -20z"/>
<path d="M8620 2505 l0 -135 55 0 c104 0 165 50 165 135 0 85 -61 135 -165
135 l-55 0 0 -135z"/>
<path d="M9243 2536 l-31 -76 60 0 c67 0 66 -7 24 96 l-23 55 -30 -75z"/>
<path d="M9740 2505 l0 -135 55 0 c104 0 165 50 165 135 0 85 -61 135 -165
135 l-55 0 0 -135z"/>
<path d="M7339 1947 c-23 -17 -39 -52 -39 -82 0 -56 36 -94 91 -95 82 0 116
126 46 175 -26 18 -76 19 -98 2z"/>
<path d="M10029 1947 c-23 -17 -39 -52 -39 -82 0 -83 85 -124 147 -71 23 20
28 32 28 71 0 39 -5 51 -28 71 -31 26 -81 32 -108 11z"/>
<path d="M6977 1953 c-4 -3 -7 -26 -7 -50 l0 -43 43 0 c30 0 49 6 60 18 22 24
21 38 -3 62 -19 19 -79 28 -93 13z"/>
<path d="M7717 1954 c-4 -4 -7 -45 -7 -90 0 -82 0 -84 27 -90 41 -11 105 16
121 49 19 39 8 93 -23 113 -26 17 -107 29 -118 18z"/>
<path d="M9160 1910 l0 -50 43 0 c46 0 77 21 77 53 0 24 -40 47 -82 47 l-38 0
0 -50z"/>
<path d="M10687 1953 c-4 -3 -7 -26 -7 -50 l0 -43 43 0 c69 0 102 51 55 84
-23 16 -79 22 -91 9z"/>
<path d="M8280 1096 c-11 -27 -19 -51 -16 -53 2 -2 22 -3 43 -1 l40 3 -23 50
-23 49 -21 -48z"/>
<path d="M8573 1090 l-21 -50 44 0 c24 0 44 2 44 4 0 6 -41 96 -43 96 -2 0
-13 -22 -24 -50z"/>
<path d="M8840 1065 l0 -85 49 0 c67 0 105 31 105 85 0 54 -38 85 -105 85
l-49 0 0 -85z"/>
<path d="M9690 1100 l0 -50 38 0 c21 0 48 7 60 16 47 33 13 84 -56 84 l-42 0
0 -50z"/>
<path d="M10232 1091 l-21 -51 45 0 c24 0 44 3 44 8 -1 4 -11 27 -24 51 l-22
43 -22 -51z"/>
<path d="M10434 1126 c-58 -49 -20 -146 56 -146 16 0 41 11 56 24 58 49 20
146 -56 146 -16 0 -41 -11 -56 -24z"/>
</g>
</svg>
