<?xml version="1.0" standalone="no"?>
<!DOCTYPE svg PUBLIC "-//W3C//DTD SVG 20010904//EN"
 "http://www.w3.org/TR/2001/REC-SVG-20010904/DTD/svg10.dtd">
<svg version="1.0" xmlns="http://www.w3.org/2000/svg"
 width="1160.000000pt" height="387.000000pt" viewBox="0 0 1160.000000 387.000000"
 preserveAspectRatio="xMidYMid meet">

<g transform="translate(0.000000,387.000000) scale(0.100000,-0.100000)"
fill="#000000" stroke="none">
<path d="M0 1935 l0 -1935 5800 0 5800 0 0 1935 0 1935 -2734 0 -2735 0 -4
-52 -3 -53 -2 53 c-2 44 -5 52 -21 52 -12 0 -21 -8 -24 -22 l-4 -23 -2 23 c-1
15 -7 22 -21 22 -18 0 -20 -8 -23 -142 l-3 -143 -4 145 -4 145 -6 -165 -6
-165 -2 163 -2 162 -2444 0 c-2320 0 -2445 -1 -2449 -17 -4 -15 -5 -15 -6 -2
-1 20 -81 25 -93 7 -6 -10 -8 -10 -8 0 0 9 -107 12 -500 12 l-500 0 0 -1935z
m5957 1723 c-2 -13 -4 -3 -4 22 0 25 2 35 4 23 2 -13 2 -33 0 -45z m-2490
-120 c-2 -29 -3 -6 -3 52 0 58 1 81 3 53 2 -29 2 -77 0 -105z m-652 -78 c3 -5
-1 -10 -9 -10 -9 0 -16 5 -16 10 0 6 4 10 9 10 6 0 13 -4 16 -10z m3218 -139
l6 -144 -21 21 c-19 18 -20 25 -10 47 7 14 12 71 12 127 0 56 2 99 4 97 2 -2
6 -69 9 -148z m-26 32 c-3 -10 -5 -2 -5 17 0 19 2 27 5 18 2 -10 2 -26 0 -35z
m-165 -142 c-5 -3 -12 -13 -15 -21 -3 -9 -6 -4 -6 12 -1 21 3 26 15 21 9 -3
11 -9 6 -12z m-2455 -68 c-3 -10 -5 -2 -5 17 0 19 2 27 5 18 2 -10 2 -26 0
-35z m2521 -5 c8 -10 12 -18 7 -18 -12 0 -34 33 -34 50 1 13 1 13 6 0 3 -8 12
-23 21 -32z m82 33 c0 -5 -9 -11 -21 -14 -16 -4 -18 -3 -8 9 13 16 29 19 29 5z
m30 -16 c11 7 22 -90 14 -130 -6 -32 -24 -50 -24 -24 0 6 -7 8 -15 5 -10 -3
-15 -1 -13 7 4 17 -23 80 -41 93 -15 12 -6 38 10 28 5 -3 7 -9 5 -12 -2 -4 6
-12 19 -18 20 -10 23 -9 22 8 -1 11 -7 16 -14 14 -18 -7 -16 4 4 26 10 11 19
15 21 9 2 -6 7 -9 12 -6z m-146 -37 c18 -15 18 -18 4 -18 -18 0 -39 29 -37 52
0 9 2 8 6 -2 3 -8 15 -23 27 -32z m13 -46 c10 2 23 9 28 15 16 20 34 0 41 -47
l7 -44 -26 17 c-30 20 -37 21 -37 7 0 -5 7 -10 15 -10 8 0 15 -4 15 -10 0 -5
-6 -7 -14 -4 -8 3 -22 2 -30 -3 -14 -8 -13 -11 4 -26 11 -9 20 -12 20 -7 0 16
44 30 51 16 4 -6 10 -46 14 -88 6 -68 5 -78 -9 -78 -10 0 -16 9 -16 24 0 14
-5 28 -10 31 -8 5 -7 12 2 23 10 12 10 16 1 19 -7 3 -13 11 -13 19 0 9 -4 13
-9 10 -5 -3 -14 1 -21 9 -21 26 -27 17 -20 -30 9 -58 -6 -45 -31 27 -11 29
-19 79 -19 113 l1 60 19 -23 c10 -13 27 -22 37 -20z m113 -92 c0 -5 -2 -10 -4
-10 -3 0 -8 5 -11 10 -3 6 -1 10 4 10 6 0 11 -4 11 -10z m-2583 -307 c-2 -32
-3 -8 -3 52 0 61 1 87 3 58 2 -29 2 -78 0 -110z m2560 30 c-15 -16 -17 -16
-17 -1 0 9 6 18 13 21 20 7 22 -2 4 -20z m33 -93 c0 -16 -7 -20 -37 -20 l-38
0 30 20 c38 25 45 25 45 0z m-2523 -202 c-2 -35 -3 -9 -3 57 0 66 1 94 3 63 2
-32 2 -86 0 -120z m-110 30 c-3 -7 -5 -2 -5 12 0 14 2 19 5 13 2 -7 2 -19 0
-25z m-40 -25 c-3 -10 -5 -2 -5 17 0 19 2 27 5 18 2 -10 2 -26 0 -35z m-110
-75 c-2 -24 -4 -7 -4 37 0 44 2 63 4 43 2 -21 2 -57 0 -80z m-540 -355 c-1
-65 -3 -12 -3 117 0 129 2 182 3 118 2 -65 2 -171 0 -235z m5338 232 c50 -14
172 -92 161 -103 -4 -3 -17 5 -31 18 -22 21 -30 20 -26 -2 1 -10 -29 -2 -65
16 -45 23 -364 33 -549 17 -169 -15 -451 -78 -432 -97 3 -3 14 -1 24 4 28 15
75 24 69 14 -3 -5 -19 -12 -34 -15 -33 -7 -136 -65 -168 -96 -24 -22 -40 -17
-22 8 7 9 -9 -4 -35 -29 -48 -45 -57 -60 -35 -60 6 0 9 3 5 6 -3 3 5 18 18 32
13 14 27 23 31 20 8 -9 -37 -67 -52 -67 -6 -1 -17 -8 -24 -16 -7 -8 -16 -13
-20 -10 -4 3 -10 -5 -14 -18 -3 -12 -15 -28 -26 -35 -17 -10 -15 -1 16 60 88
175 158 239 319 291 223 72 726 107 890 62z m-4688 -27 c-3 -8 -6 -5 -6 6 -1
11 2 17 5 13 3 -3 4 -12 1 -19z m6855 8 c-18 -6 -30 -14 -27 -17 3 -4 -4 -9
-15 -12 -18 -5 -19 -3 -8 10 14 17 45 32 68 32 8 0 0 -6 -18 -13z m-6895 -208
c-1 -40 -3 -10 -3 67 0 77 1 110 3 73 2 -37 2 -100 0 -140z m150 -25 c-1 -43
-3 -8 -3 77 0 85 2 120 3 78 2 -43 2 -113 0 -155z m6953 211 c0 -8 -19 -13
-24 -6 -3 5 1 9 9 9 8 0 15 -2 15 -3z m150 -8 c0 -3 -4 -8 -10 -11 -5 -3 -10
-1 -10 4 0 6 5 11 10 11 6 0 10 -2 10 -4z m-210 -36 c-20 -13 -117 -13 -125 0
-4 6 21 10 67 10 51 0 68 -3 58 -10z m-6963 -47 c-3 -10 -5 -4 -5 12 0 17 2
24 5 18 2 -7 2 -21 0 -30z m6008 27 c5 -9 -35 -12 -130 -12 -37 0 -37 5 0 11
72 11 124 11 130 1z m-4514 -24 c-8 -9 -25 -12 -56 -9 -44 5 -44 5 -76 -46
-17 -29 -33 -50 -36 -47 -2 2 12 29 33 60 l37 56 55 0 c45 0 52 -2 43 -14z
m727 -2 c103 -4 162 -10 162 -17 0 -11 -842 -3 -862 9 -7 5 -7 9 1 13 12 8
438 4 699 -5z m1282 11 c0 -2 -22 -28 -49 -56 -44 -49 -53 -53 -107 -60 -88
-11 -202 -10 -209 1 -3 6 -3 10 2 10 7 0 53 61 53 71 0 2 -79 3 -176 1 -141
-2 -175 0 -172 10 4 10 55 14 214 18 346 9 444 10 444 5z m1341 -12 c13 -16
12 -17 -3 -4 -10 7 -18 15 -18 17 0 8 8 3 21 -13z m1266 -5 c-3 -8 -6 -5 -6 6
-1 11 2 17 5 13 3 -3 4 -12 1 -19z m-3308 -10 c-21 -39 -63 -103 -74 -110 -12
-9 -185 -11 -185 -2 0 3 11 22 25 42 40 58 36 62 -62 62 -127 0 -92 19 42 23
61 1 145 4 188 5 l78 2 -12 -22z m-2992 -125 c-2 -27 -3 -5 -3 47 0 52 1 74 3
48 2 -27 2 -69 0 -95z m5028 109 c-3 -3 -11 0 -18 7 -9 10 -8 11 6 5 10 -3 15
-9 12 -12z m44 -69 c-1 -62 -6 -56 -11 15 -2 23 0 42 4 42 5 0 7 -26 7 -57z
m98 12 c0 -32 -24 -7 -33 33 -2 10 2 9 15 -2 10 -9 18 -23 18 -31z m83 40 c0
-2 -10 -9 -22 -15 -22 -11 -22 -10 -4 4 21 17 26 19 26 11z m1530 -5 c0 -5 -8
-10 -17 -10 -15 0 -16 2 -3 10 19 12 20 12 20 0z m-500 -10 c0 -5 -8 -10 -17
-10 -15 0 -16 2 -3 10 19 12 20 12 20 0z m35 0 c3 -5 1 -10 -4 -10 -6 0 -11 5
-11 10 0 6 2 10 4 10 3 0 8 -4 11 -10z m153 -7 c-10 -2 -28 -2 -40 0 -13 2 -5
4 17 4 22 1 32 -1 23 -4z m-1259 -17 c11 -14 6 -15 -27 -7 -4 1 8 21 12 21 2
0 9 -6 15 -14z m874 7 c-7 -2 -21 -2 -30 0 -10 3 -4 5 12 5 17 0 24 -2 18 -5z
m-783 -11 c0 7 5 5 11 -5 6 -10 8 -21 5 -24 -3 -4 -6 -1 -6 7 0 10 -4 10 -17
-1 -11 -10 -14 -10 -9 -1 4 6 3 12 -1 12 -5 0 -15 -6 -22 -12 -11 -10 -13 -10
-7 0 4 7 2 12 -6 12 -10 0 -9 3 1 9 9 6 22 6 33 0 13 -7 18 -6 18 3z m70 -13
c0 -5 -4 -9 -10 -9 -5 0 -10 7 -10 16 0 8 5 12 10 9 6 -3 10 -10 10 -16z m57
5 c2 -5 -8 -11 -22 -12 -17 -1 -23 2 -19 12 6 15 36 15 41 0z m268 6 c23 -6
15 -8 -37 -9 -40 -1 -68 3 -68 9 0 11 60 11 105 0z m-140 -10 c-28 -12 -115
-12 -115 0 0 6 29 10 68 9 46 0 61 -3 47 -9z m-508 -67 c-3 -10 -5 -2 -5 17 0
19 2 27 5 18 2 -10 2 -26 0 -35z m1743 42 c0 -13 -37 -23 -51 -13 -11 8 -11 9
4 4 9 -3 17 -1 17 4 0 6 7 10 15 10 8 0 15 -2 15 -5z m-1613 -37 c-3 -8 -6 -5
-6 6 -1 11 2 17 5 13 3 -3 4 -12 1 -19z m1668 12 c4 -6 -1 -7 -11 -3 -13 5
-15 3 -9 -7 5 -9 4 -11 -4 -6 -6 4 -9 12 -6 17 8 12 22 12 30 -1z m36 -13
c-13 -13 -26 -3 -16 12 3 6 11 8 17 5 6 -4 6 -10 -1 -17z m-2121 -13 c0 -2 -7
-4 -15 -4 -8 0 -15 4 -15 10 0 5 7 7 15 4 8 -4 15 -8 15 -10z m1423 9 c-7 -2
-21 -2 -30 0 -10 3 -4 5 12 5 17 0 24 -2 18 -5z m-1350 -10 c-7 -2 -19 -2 -25
0 -7 3 -2 5 12 5 14 0 19 -2 13 -5z m1180 0 c-7 -2 -19 -2 -25 0 -7 3 -2 5 12
5 14 0 19 -2 13 -5z m847 -8 c5 3 11 1 14 -4 4 -5 -2 -8 -11 -7 -9 2 -18 8
-19 15 -1 6 0 7 3 1 2 -5 9 -8 13 -5z m-2305 -5 c-33 -4 -53 -8 -45 -9 12 -1
11 -4 -4 -12 -10 -6 -38 -9 -62 -6 -24 2 -41 1 -38 -4 3 -5 -17 -9 -45 -9 -27
0 -58 -3 -68 -6 -15 -5 -15 -3 2 7 11 7 23 16 26 21 10 15 92 26 194 25 88 0
93 -1 40 -7z m1213 4 c-3 -3 -98 -8 -211 -12 -114 -4 -203 -4 -199 0 4 4 68 9
142 11 74 1 166 4 204 5 38 1 67 -1 64 -4z m-578 -14 c0 -5 -5 -10 -11 -10 -5
0 -7 5 -4 10 3 6 8 10 11 10 2 0 4 -4 4 -10z m140 -16 c0 -8 -4 -12 -10 -9 -5
3 -10 13 -10 21 0 8 5 12 10 9 6 -3 10 -13 10 -21z m1827 20 c-3 -3 -12 -4
-19 -1 -8 3 -5 6 6 6 11 1 17 -2 13 -5z m-5287 -8 c0 -3 -4 -8 -10 -11 -5 -3
-10 -1 -10 4 0 6 5 11 10 11 6 0 10 -2 10 -4z m105 -20 c20 3 35 1 40 -6 5 -8
10 -8 21 1 20 17 17 6 -11 -46 -14 -25 -23 -50 -19 -57 5 -7 -10 -9 -50 -6
-41 3 -63 11 -81 28 -26 25 -35 51 -10 30 12 -10 15 -7 21 17 4 15 14 36 22
46 14 16 17 16 25 2 6 -12 17 -14 42 -9z m2154 -4 c-10 -2 -27 -15 -36 -28 -9
-14 -21 -23 -27 -21 -6 2 -20 0 -31 -5 -18 -7 -17 -8 3 -4 23 4 23 4 7 -14
-16 -18 -19 -18 -41 -2 -22 16 -34 45 -16 40 4 -1 28 10 55 26 26 15 54 26 62
22 8 -3 17 0 21 6 4 7 9 6 15 -3 6 -10 3 -15 -12 -17z m751 -8 c0 -2 -9 0 -20
6 -11 6 -20 13 -20 16 0 2 9 0 20 -6 11 -6 20 -13 20 -16z m274 17 c4 -5 -1
-8 -9 -7 -21 3 -31 16 -12 16 9 0 18 -4 21 -9z m142 2 c-10 -11 -37 -12 -30
-2 3 5 12 9 21 9 9 0 13 -3 9 -7z m1575 -25 c11 -8 10 -9 -3 -4 -10 3 -18 1
-18 -4 0 -6 5 -10 10 -10 6 0 10 -5 10 -11 0 -8 -4 -8 -14 0 -7 6 -13 23 -13
37 0 16 2 21 7 14 4 -7 14 -17 21 -22z m-5311 8 c0 -20 -16 -36 -35 -36 -18 0
-23 5 -22 20 1 15 8 20 29 20 15 0 28 -2 28 -4z m287 -18 c-3 -8 -6 -5 -6 6
-1 11 2 17 5 13 3 -3 4 -12 1 -19z m33 13 c0 -6 -4 -13 -10 -16 -5 -3 -10 1
-10 9 0 9 5 16 10 16 6 0 10 -4 10 -9z m-142 -8 c-30 -8 -20 -22 20 -26 31 -3
29 -4 -14 -5 -68 -3 -114 7 -114 24 0 11 16 14 63 13 34 -1 54 -3 45 -6z
m3186 -19 c5 -14 4 -15 -9 -4 -17 14 -19 20 -6 20 5 0 12 -7 15 -16z m-950
-29 c29 -23 44 -66 22 -62 -6 1 -10 -5 -9 -13 1 -8 -16 -35 -39 -60 -35 -39
-37 -40 -14 -8 32 45 33 58 4 32 -23 -20 -17 -3 9 28 11 13 12 18 2 24 -7 4
-15 2 -17 -4 -5 -15 -32 -16 -32 -2 0 6 12 22 26 35 22 21 25 27 14 40 -19 23
1 17 34 -10z m-1884 11 c0 -2 -8 -10 -17 -17 -16 -13 -17 -12 -4 4 13 16 21
21 21 13z m3037 -18 c-3 -8 -6 -5 -6 6 -1 11 2 17 5 13 3 -3 4 -12 1 -19z
m263 2 c13 -8 13 -10 -2 -10 -9 0 -20 5 -23 10 -8 13 5 13 25 0z m1607 1 c7 7
13 7 13 3 0 -5 -9 -15 -21 -22 -12 -8 -18 -9 -14 -3 3 6 1 11 -4 11 -6 0 -11
5 -11 12 0 9 3 9 12 0 8 -8 15 -9 25 -1z m-1903 -39 c2 -17 -1 -29 -5 -26 -5
3 -9 19 -9 36 0 39 9 32 14 -10z m-3049 18 c-3 -5 -12 -10 -18 -10 -7 0 -6 4
3 10 19 12 23 12 15 0z m-1798 -322 c-1 -57 -3 -11 -3 102 0 113 2 159 3 103
2 -57 2 -149 0 -205z m3804 275 l24 -26 -27 19 c-15 10 -28 22 -28 27 0 12 5
8 31 -20z m972 12 c-3 -9 -8 -14 -10 -11 -3 3 -2 9 2 15 9 16 15 13 8 -4z
m-4846 -272 c-1 -54 -3 -12 -3 92 0 105 2 149 3 98 2 -51 2 -136 0 -190z
m3903 267 c0 -5 -2 -10 -4 -10 -3 0 -8 5 -11 10 -3 6 -1 10 4 10 6 0 11 -4 11
-10z m-45 -20 c3 -5 1 -10 -4 -10 -6 0 -11 5 -11 10 0 6 2 10 4 10 3 0 8 -4
11 -10z m-2502 -50 c-3 -11 -9 -17 -14 -14 -5 3 -7 9 -4 14 3 4 -1 11 -7 13
-7 3 -3 6 9 6 16 1 20 -3 16 -19z m142 1 c-25 -5 -27 -8 -12 -14 10 -4 28 -7
39 -7 12 0 19 -2 16 -5 -3 -4 -30 -3 -59 1 -30 4 -48 9 -40 12 11 4 11 6 0 13
-9 6 4 8 36 8 41 -1 45 -3 20 -8z m2242 -73 c-7 -10 -15 -18 -19 -18 -3 0 -8
-8 -10 -17 -2 -11 -6 -14 -10 -7 -4 6 1 20 12 31 10 12 17 23 14 25 -2 3 2 5
10 5 11 0 12 -4 3 -19z m-3780 -275 c-1 -43 -3 -10 -3 72 0 83 2 118 3 78 2
-40 2 -107 0 -150z m1526 143 c-3 -17 -7 -32 -8 -34 -1 -1 -31 1 -65 5 -51 6
-64 12 -66 27 -1 10 -9 23 -16 28 -8 5 22 8 74 7 l87 -2 -6 -31z m-130 -123
c-7 -2 -21 -2 -30 0 -10 3 -4 5 12 5 17 0 24 -2 18 -5z m117 -11 c0 -4 -17 -6
-37 -4 -65 6 -70 10 -15 11 28 0 52 -3 52 -7z m5824 -71 c-5 -5 -33 30 -34 43
0 4 9 -2 19 -15 11 -13 17 -26 15 -28z m-3349 -72 l-27 -52 21 -65 c12 -35 19
-67 17 -70 -10 -9 -87 164 -80 181 8 22 88 81 92 68 2 -5 -9 -33 -23 -62z
m-1064 -69 c23 -63 64 -166 91 -228 27 -63 48 -116 45 -118 -2 -2 -18 -1 -36
2 -40 8 -52 31 -131 242 -78 210 -75 197 -48 216 12 9 25 12 29 8 4 -4 26 -59
50 -122z m1220 33 c13 -16 12 -17 -3 -4 -10 7 -18 15 -18 17 0 8 8 3 21 -13z
m3095 2 c10 -8 14 -15 7 -15 -19 0 -43 11 -43 21 0 13 14 11 36 -6z m-2166 1
c0 -2 -8 -10 -17 -17 -16 -13 -17 -12 -4 4 13 16 21 21 21 13z m398 -13 c-10
-2 -28 -2 -40 0 -13 2 -5 4 17 4 22 1 32 -1 23 -4z m-105 -10 c-7 -2 -21 -2
-30 0 -10 3 -4 5 12 5 17 0 24 -2 18 -5z m-1197 -44 c-7 -44 -34 -104 -43 -96
-8 8 35 137 46 137 2 0 1 -18 -3 -41z m904 15 c0 -2 -11 -4 -25 -4 -14 0 -25
4 -25 9 0 4 11 6 25 3 14 -2 25 -6 25 -8z m-835 -134 c3 -5 1 -10 -4 -10 -6 0
-11 5 -11 10 0 6 2 10 4 10 3 0 8 -4 11 -10z m2841 -15 c16 -12 16 -14 3 -15
-9 0 -22 7 -29 15 -16 19 0 19 26 0z m-57 -156 c11 -12 25 -18 31 -14 7 4 4
-5 -5 -19 -22 -34 -35 -29 -51 17 -14 41 -5 48 25 16z m-3032 -21 c-3 -7 -5
-2 -5 12 0 14 2 19 5 13 2 -7 2 -19 0 -25z m392 -35 c0 -10 -9 -40 -20 -68
-20 -52 -20 -51 -2 53 6 33 24 45 22 15z m111 -58 c0 -8 -2 -15 -4 -15 -2 0
-6 7 -10 15 -3 8 -1 15 4 15 6 0 10 -7 10 -15z m25 -55 c3 -5 1 -10 -4 -10 -6
0 -11 5 -11 10 0 6 2 10 4 10 3 0 8 -4 11 -10z m-161 -86 c3 -8 2 -12 -4 -9
-6 3 -10 10 -10 16 0 14 7 11 14 -7z m138 -89 c-4 -26 -22 -45 -22 -25 0 12
18 50 24 50 2 0 1 -11 -2 -25z"/>
<path d="M5877 3030 c3 -11 7 -20 8 -20 1 0 5 9 8 20 3 12 0 20 -8 20 -8 0
-11 -8 -8 -20z"/>
<path d="M5950 2871 c0 -6 5 -13 10 -16 6 -3 10 1 10 9 0 9 -4 16 -10 16 -5 0
-10 -4 -10 -9z"/>
<path d="M7898 2203 c6 -2 18 -2 25 0 6 3 1 5 -13 5 -14 0 -19 -2 -12 -5z"/>
<path d="M7948 2193 c7 -3 16 -2 19 1 4 3 -2 6 -13 5 -11 0 -14 -3 -6 -6z"/>
<path d="M7980 2196 c0 -3 25 -14 57 -26 41 -15 59 -18 67 -10 6 7 7 10 1 9
-5 -1 -34 5 -64 14 -60 19 -61 19 -61 13z"/>
<path d="M5113 1810 c-40 -24 -42 -37 -7 -50 47 -18 69 -12 81 21 7 18 10 36
7 40 -9 15 -48 10 -81 -11z"/>
<path d="M7168 1753 c-10 -2 -18 -12 -18 -20 0 -14 3 -14 20 2 17 15 26 28 18
24 -2 -1 -11 -3 -20 -6z"/>
<path d="M7155 1700 c-3 -5 -1 -10 4 -10 6 0 11 5 11 10 0 6 -2 10 -4 10 -3 0
-8 -4 -11 -10z"/>
</g>
</svg>
