<?xml version="1.0" standalone="no"?>
<!DOCTYPE svg PUBLIC "-//W3C//DTD SVG 20010904//EN"
 "http://www.w3.org/TR/2001/REC-SVG-20010904/DTD/svg10.dtd">
<svg version="1.0" xmlns="http://www.w3.org/2000/svg"
 width="1160.000000pt" height="387.000000pt" viewBox="0 0 1160.000000 387.000000"
 preserveAspectRatio="xMidYMid meet">

<g transform="translate(0.000000,387.000000) scale(0.100000,-0.100000)"
fill="#000000" stroke="none">
<path d="M0 1935 l0 -1935 5800 0 5800 0 0 1935 0 1935 -5800 0 -5800 0 0
-1935z m10391 1610 c87 -31 141 -94 155 -184 4 -23 11 -44 16 -47 7 -4 6 -9 0
-13 -6 -4 -24 -31 -39 -61 -49 -93 -152 -137 -253 -110 -53 14 -135 90 -146
135 -4 17 -11 33 -17 36 -5 4 -6 13 -1 20 4 7 9 27 11 43 9 79 68 151 149 180
51 19 73 19 125 1z m-3705 -14 c23 -10 44 -23 47 -28 3 -5 -9 -21 -28 -36 -28
-23 -35 -24 -45 -12 -15 18 -79 19 -102 2 -42 -32 -34 -108 14 -133 45 -23 78
-7 78 41 0 34 1 35 40 35 l40 0 0 -64 0 -64 -45 -17 c-57 -22 -145 -16 -182
11 -51 38 -67 70 -67 130 1 67 22 100 84 132 54 27 111 28 166 3z m-1085 -63
c25 -39 49 -73 55 -75 5 -2 29 31 53 72 41 73 43 75 82 75 l39 0 0 -150 0
-150 -40 0 -40 0 0 65 c0 36 -3 65 -7 65 -5 0 -21 -22 -38 -48 -41 -65 -63
-66 -100 -3 -17 28 -33 51 -37 51 -5 0 -8 -30 -8 -66 l0 -65 -42 3 c-24 2 -42
6 -40 11 1 4 2 70 2 147 l0 140 39 0 c37 0 40 -3 82 -72z m659 37 l0 -34 -72
-3 c-57 -2 -73 -6 -73 -18 0 -12 15 -16 68 -18 l67 -3 0 -34 0 -35 -65 0 c-58
0 -65 -2 -65 -20 0 -18 7 -20 75 -20 l75 0 0 -40 0 -40 -125 0 -125 0 0 150 0
150 120 0 120 0 0 -35z m908 -108 c34 -79 62 -146 62 -150 0 -4 -20 -7 -45 -7
-39 0 -46 3 -60 30 -14 28 -20 30 -70 30 -50 0 -56 -2 -70 -30 -14 -27 -21
-30 -61 -30 -40 0 -45 2 -40 18 4 9 32 76 64 149 l57 132 51 1 50 0 62 -143z
m2912 -107 c0 -5 -7 -10 -16 -10 -8 0 -12 5 -9 10 3 6 10 10 16 10 5 0 9 -4 9
-10z m530 0 c0 -5 -7 -10 -15 -10 -8 0 -15 5 -15 10 0 6 7 10 15 10 8 0 15 -4
15 -10z m-2978 -27 l49 -28 19 23 c13 15 29 22 55 22 l38 0 -6 -42 c-4 -31
-14 -51 -37 -70 -38 -35 -71 -35 -132 -3 -47 25 -78 25 -78 -1 0 -10 -13 -14
-45 -14 -39 0 -45 3 -45 21 0 34 31 89 59 104 39 21 67 18 123 -12z m3018 -4
c0 -5 -4 -9 -10 -9 -5 0 -10 7 -10 16 0 8 5 12 10 9 6 -3 10 -10 10 -16z
m-615 1 c-3 -5 -10 -10 -16 -10 -5 0 -9 5 -9 10 0 6 7 10 16 10 8 0 12 -4 9
-10z m-40 -30 c-3 -5 -10 -10 -16 -10 -5 0 -9 5 -9 10 0 6 7 10 16 10 8 0 12
-4 9 -10z m695 0 c0 -5 -4 -10 -10 -10 -5 0 -10 5 -10 10 0 6 5 10 10 10 6 0
10 -4 10 -10z m-730 -28 c0 -13 -12 -22 -22 -16 -10 6 -1 24 13 24 5 0 9 -4 9
-8z m770 -2 c0 -5 -4 -10 -10 -10 -5 0 -10 5 -10 10 0 6 5 10 10 10 6 0 10 -4
10 -10z m-810 -40 c0 -5 -4 -10 -10 -10 -5 0 -10 5 -10 10 0 6 5 10 10 10 6 0
10 -4 10 -10z m845 0 c3 -5 -1 -10 -9 -10 -9 0 -16 5 -16 10 0 6 4 10 9 10 6
0 13 -4 16 -10z m-879 -47 c-10 -10 -19 5 -10 18 6 11 8 11 12 0 2 -7 1 -15
-2 -18z m909 -1 c-8 -8 -25 10 -19 20 4 6 9 5 15 -3 4 -7 6 -15 4 -17z m-2413
-10 c156 -57 233 -210 183 -363 -25 -73 -101 -149 -175 -175 -125 -42 -260
-15 -345 70 -156 157 -88 403 130 472 57 18 152 16 207 -4z m-2467 -67 l0 -70
-127 -3 -128 -3 0 -44 0 -45 110 0 110 0 0 -70 0 -70 -110 0 -110 0 0 -85 0
-85 -95 0 -95 0 0 275 0 275 223 -2 222 -3 0 -70z m503 3 l-3 -73 -133 -3
-133 -3 3 -27 3 -27 118 -3 117 -3 0 -64 0 -64 -117 -3 -118 -3 -3 -32 -3 -33
140 0 141 0 0 -70 0 -70 -230 0 -230 0 0 275 0 275 225 0 226 0 -3 -72z m270
-205 l2 -273 -95 0 -95 0 0 275 0 276 93 -3 92 -3 3 -272z m487 246 c125 -63
152 -222 54 -320 l-39 -39 51 -75 c29 -41 53 -75 54 -75 1 0 56 122 121 270
l118 270 91 0 92 0 15 -37 c9 -21 61 -143 117 -271 55 -128 101 -235 101 -238
0 -2 -44 -3 -97 -2 l-96 3 -15 43 -14 43 -106 -3 -105 -3 -16 -42 -15 -43
-196 0 -195 0 -43 65 c-33 51 -47 65 -67 65 -24 0 -25 -2 -25 -65 l0 -65 -95
0 -95 0 0 276 0 276 178 -4 c165 -4 180 -5 227 -29z m2690 1 c-3 -5 -10 -10
-16 -10 -5 0 -9 5 -9 10 0 6 7 10 16 10 8 0 12 -4 9 -10z m955 0 c0 -5 -4 -10
-10 -10 -5 0 -10 5 -10 10 0 6 5 10 10 10 6 0 10 -4 10 -10z m-980 -45 c0 -8
-4 -15 -10 -15 -5 0 -10 7 -10 15 0 8 5 15 10 15 6 0 10 -7 10 -15z m1001 2
c-1 -12 -15 -9 -19 4 -3 6 1 10 8 8 6 -3 11 -8 11 -12z m-470 -17 c26 -15 26
-66 -2 -80 -37 -20 -64 -9 -67 28 -2 19 -1 40 2 48 6 16 39 18 67 4z m99 0 c0
-5 -10 -10 -22 -11 -22 0 -22 -1 2 -11 25 -11 25 -11 3 -15 -28 -5 -30 -23 -4
-23 11 0 23 -4 26 -10 4 -6 -8 -10 -29 -10 -36 0 -36 0 -36 45 0 43 1 45 30
45 17 0 30 -4 30 -10z m-230 -15 c0 -8 8 -15 17 -15 14 0 12 -4 -7 -22 -16
-15 -25 -18 -28 -10 -2 7 -10 12 -18 12 -8 0 -14 5 -14 10 0 6 7 10 15 10 8 0
15 7 15 15 0 8 5 15 10 15 6 0 10 -7 10 -15z m-420 -20 c0 -8 -4 -15 -10 -15
-5 0 -10 7 -10 15 0 8 5 15 10 15 6 0 10 -7 10 -15z m1041 2 c-1 -12 -15 -9
-19 4 -3 6 1 10 8 8 6 -3 11 -8 11 -12z m19 -48 c0 -5 -4 -9 -10 -9 -5 0 -10
7 -10 16 0 8 5 12 10 9 6 -3 10 -10 10 -16z m-1070 3 c0 -13 -12 -22 -22 -16
-10 6 -1 24 13 24 5 0 9 -4 9 -8z m1080 -53 c0 -5 -4 -9 -10 -9 -5 0 -10 7
-10 16 0 8 5 12 10 9 6 -3 10 -10 10 -16z m-1090 1 c0 -5 -7 -10 -16 -10 -8 0
-12 5 -9 10 3 6 10 10 16 10 5 0 9 -4 9 -10z m265 -25 c31 -31 31 -46 0 -84
l-26 -30 23 -3 c17 -2 24 -11 26 -30 l3 -28 -74 0 c-98 0 -106 15 -42 80 25
25 45 49 45 54 0 5 -13 6 -29 3 -18 -4 -36 0 -47 9 -18 14 -18 15 5 34 33 28
86 26 116 -5z m265 5 c41 -41 38 -125 -7 -160 -91 -71 -191 71 -111 158 28 29
90 30 118 2z m185 -5 c37 -37 35 -106 -4 -146 -18 -17 -40 -29 -56 -29 -16 0
-38 12 -56 29 -37 37 -41 104 -8 145 28 36 89 37 124 1z m190 0 c37 -37 35
-106 -4 -146 -36 -36 -70 -37 -110 -3 -27 22 -31 32 -31 74 0 66 27 100 81
100 29 0 47 -7 64 -25z m-5305 -15 c0 -6 -48 -10 -125 -10 -104 0 -132 -3
-163 -19 -87 -44 -101 -86 -101 -301 -1 -91 2 -176 6 -189 l6 -24 129 6 c127
6 129 6 156 35 61 67 -80 63 1727 60 899 -2 1635 -2 1635 -1 0 1 3 8 6 17 5
13 -1 16 -25 16 -28 0 -31 3 -31 30 0 29 2 30 43 30 43 0 43 0 72 60 30 63 60
98 72 86 5 -4 0 -12 -10 -17 -20 -12 -71 -109 -82 -156 -5 -24 -3 -33 7 -34
86 -4 653 -3 683 1 33 4 39 9 37 25 -8 43 -45 127 -69 155 -13 17 -20 30 -15
30 16 0 46 -48 72 -115 13 -33 27 -64 31 -70 3 -5 12 -27 18 -47 7 -21 28 -56
47 -79 32 -39 34 -44 34 -121 0 -79 0 -80 23 -74 13 3 124 8 248 11 261 7 405
20 434 39 11 7 33 41 49 75 28 57 32 61 63 61 31 0 93 -24 93 -36 0 -2 -13 2
-30 11 -16 8 -35 15 -43 15 -22 0 -46 -32 -63 -86 -9 -27 -20 -53 -24 -59 -4
-5 -11 -20 -14 -32 -6 -20 -4 -23 18 -23 15 0 26 -7 29 -17 4 -14 5 -13 6 3 1
25 19 34 69 34 20 0 47 3 60 6 43 12 21 24 -45 24 -38 0 -73 4 -79 8 -19 12 0
37 30 39 16 1 33 8 38 15 6 10 8 10 8 -2 0 -12 2 -12 9 -2 7 11 9 11 14 -2 8
-20 46 -21 54 -1 4 12 11 8 29 -19 13 -19 24 -40 24 -45 0 -6 5 -11 11 -11 6
0 8 8 5 18 -3 9 4 4 16 -13 13 -16 33 -62 46 -101 23 -72 23 -73 4 -92 -14
-14 -23 -40 -27 -79 -4 -32 -8 -63 -10 -69 -2 -7 -45 -19 -97 -28 -51 -10
-100 -19 -109 -22 -12 -3 -18 5 -23 33 -18 109 -24 133 -40 158 -27 41 -56 30
-88 -34 -28 -55 -30 -73 -5 -52 12 9 16 4 21 -30 8 -52 3 -59 -14 -19 -14 33
-25 38 -34 15 -6 -17 3 -46 18 -58 7 -6 5 -7 -5 -4 -12 4 -18 -2 -22 -19 -5
-26 4 -30 34 -13 20 10 20 10 4 -21 l-17 -32 -189 3 c-138 3 -192 7 -197 17
-6 9 -60 13 -208 14 -109 1 -183 4 -164 8 34 6 34 6 -13 11 -27 2 -51 1 -53
-3 -7 -11 -34 -10 -34 2 0 5 8 7 18 4 14 -5 14 -4 -2 6 -14 10 -20 10 -27 -1
-6 -10 -8 -9 -8 6 -1 11 -3 38 -5 60 -4 30 -3 33 2 10 10 -43 57 -62 181 -74
207 -22 548 -8 577 22 7 7 15 27 19 45 8 37 4 38 -108 22 -49 -7 -78 -18 -110
-41 l-42 -31 -190 6 c-238 8 -251 10 -267 46 -7 16 -23 34 -36 40 -20 9 -23
15 -17 38 4 15 10 29 13 32 4 3 7 11 8 18 1 6 2 24 3 40 2 26 3 26 11 5 10
-24 34 -31 45 -13 3 5 -3 10 -14 10 -25 0 -27 17 -5 48 16 24 7 30 -16 10 -9
-8 -8 -5 1 7 9 11 15 25 12 31 -2 6 3 14 11 17 10 4 13 1 9 -9 -3 -9 0 -13 8
-10 50 15 51 16 40 30 -10 12 -80 14 -414 14 l-402 0 -27 -25 c-16 -15 -33
-23 -42 -20 -13 5 -16 -1 -16 -33 l0 -40 -1430 0 c-1010 0 -1430 -3 -1430 -11
0 -6 -7 -3 -16 5 -33 34 -66 -12 -88 -122 -9 -45 -16 -57 -31 -59 -16 -1 -17
-1 -2 3 62 19 -64 41 -169 29 -64 -7 -64 -7 -65 -38 0 -23 -4 -16 -13 27 -15
69 -53 111 -89 101 -36 -11 -83 -69 -102 -126 -10 -30 -21 -58 -26 -63 -6 -6
-27 2 -54 22 -25 18 -52 32 -60 32 -9 0 -15 10 -15 26 0 15 -4 23 -10 19 -6
-4 -9 -13 -8 -22 3 -13 -12 -15 -97 -14 -151 2 -396 21 -415 31 -14 7 -20 5
-26 -8 -6 -14 -8 -11 -14 13 -4 19 -1 42 10 65 9 19 15 44 13 55 -1 11 0 14 3
8 3 -7 14 -13 24 -13 10 0 22 -4 25 -10 3 -5 14 -10 25 -10 16 0 17 4 8 39 -6
23 -17 42 -27 44 -26 7 43 8 78 1 27 -6 31 -10 31 -41 l0 -34 77 3 c76 3 77 3
85 33 5 21 14 31 28 32 19 2 20 -2 15 -28 -9 -38 3 -38 16 1 10 28 15 30 60
30 46 0 50 -2 74 -40 29 -46 25 -44 68 -27 30 13 107 88 107 105 0 4 -35 13
-77 20 -98 15 -190 6 -220 -20 -18 -17 -33 -19 -101 -16 -65 2 -79 6 -74 18 4
12 2 13 -9 3 -22 -21 -92 -16 -107 7 -7 11 -21 20 -32 20 -11 0 -20 5 -20 10
0 6 3 10 8 9 4 0 56 -6 115 -13 103 -12 225 -9 360 9 43 6 50 11 68 46 11 22
15 38 11 37 -5 -2 -18 7 -28 20 -24 29 -104 41 -274 42 l-115 1 45 18 c25 10
82 22 128 26 76 7 82 6 82 -11 1 -18 1 -18 14 -1 9 11 27 17 52 17 l39 0 -3
205 c-3 198 -2 207 20 246 23 41 66 74 116 89 40 12 262 12 262 0z m3495 -1
c57 -16 122 -84 131 -136 l6 -40 145 -6 c239 -8 180 -22 -97 -22 -142 0 -256
3 -254 6 2 4 44 10 94 13 l90 8 0 27 c0 16 -13 46 -29 68 -42 58 -88 73 -221
73 -67 0 -110 4 -110 10 0 14 195 13 245 -1z m1991 -16 c-10 -10 -19 5 -10 18
6 11 8 11 12 0 2 -7 1 -15 -2 -18z m-1096 7 c0 -5 -4 -10 -10 -10 -5 0 -10 5
-10 10 0 6 5 10 10 10 6 0 10 -4 10 -10z m1096 -57 c-10 -10 -19 5 -10 18 6
11 8 11 12 0 2 -7 1 -15 -2 -18z m-1096 7 c0 -5 -4 -10 -10 -10 -5 0 -10 5
-10 10 0 6 5 10 10 10 6 0 10 -4 10 -10z m368 -32 c17 -17 15 -43 -4 -59 -31
-26 -70 25 -44 56 15 18 32 19 48 3z m-368 -18 c0 -5 -4 -10 -10 -10 -5 0 -10
5 -10 10 0 6 5 10 10 10 6 0 10 -4 10 -10z m1100 0 c0 -5 -4 -10 -10 -10 -5 0
-10 5 -10 10 0 6 5 10 10 10 6 0 10 -4 10 -10z m-1090 -50 c0 -5 -4 -10 -10
-10 -5 0 -10 5 -10 10 0 6 5 10 10 10 6 0 10 -4 10 -10z m1085 0 c-3 -5 -10
-10 -16 -10 -5 0 -9 5 -9 10 0 6 7 10 16 10 8 0 12 -4 9 -10z m-19 -57 c-10
-10 -19 5 -10 18 6 11 8 11 12 0 2 -7 1 -15 -2 -18z m-1056 7 c0 -5 -4 -10
-10 -10 -5 0 -10 5 -10 10 0 6 5 10 10 10 6 0 10 -4 10 -10z m907 -17 c3 -7
-3 -9 -16 -6 -12 3 -21 1 -21 -6 0 -6 6 -11 14 -11 7 0 19 -7 26 -15 10 -12
10 -18 0 -30 -15 -18 -51 -16 -57 2 -3 7 3 9 16 6 12 -3 21 -1 21 5 0 5 -9 12
-20 15 -22 6 -28 42 -7 50 18 8 40 3 44 -10z m-1769 0 c-10 -2 -28 -2 -40 0
-13 2 -5 4 17 4 22 1 32 -1 23 -4z m1052 -7 c0 -9 -7 -12 -20 -9 -11 3 -20 1
-20 -5 0 -5 11 -13 25 -16 14 -4 25 -12 25 -20 0 -21 -27 -38 -50 -31 -29 9
-25 27 5 19 14 -3 25 -2 25 4 0 5 -11 13 -25 16 -27 7 -35 40 -12 49 24 10 47
7 47 -7z m90 4 c0 -5 -12 -11 -27 -11 -24 -2 -25 -2 -5 -6 12 -2 22 -8 22 -13
0 -4 -10 -11 -22 -15 -22 -8 -22 -8 5 -12 39 -6 33 -23 -8 -23 -35 0 -35 0
-35 45 0 45 0 45 35 45 19 0 35 -4 35 -10z m81 -17 c7 15 17 26 23 24 13 -4
14 -77 1 -76 -5 0 -9 7 -9 15 2 19 -12 18 -20 -2 -6 -15 -8 -15 -27 2 -18 17
-21 17 -18 2 2 -9 0 -17 -6 -18 -12 -1 -19 45 -10 68 6 14 10 12 30 -12 l24
-30 12 27z m74 -18 c0 -22 -5 -40 -12 -42 -9 -3 -13 9 -13 42 0 33 4 45 13 43
7 -3 12 -21 12 -43z m53 25 c7 -11 17 -20 22 -20 6 0 10 9 10 20 0 11 5 20 10
20 6 0 10 -20 10 -45 0 -51 -10 -56 -39 -19 l-21 27 0 -27 c0 -17 -5 -26 -12
-24 -9 3 -14 51 -9 83 2 11 17 4 29 -15z m146 1 c23 -26 13 -59 -21 -67 -32
-8 -57 6 -61 35 -7 48 49 69 82 32z m47 -13 l13 -32 13 32 c11 28 34 45 33 25
-2 -17 -36 -77 -46 -80 -9 -3 -44 62 -44 82 0 17 20 0 31 -27z m149 12 c6 -12
8 -30 5 -40 -7 -24 -52 -37 -74 -23 -20 13 -26 50 -11 69 19 21 67 18 80 -6z
m-1825 -12 c-4 -33 -55 -137 -55 -113 0 11 9 39 20 63 11 24 19 46 19 50 -2
14 1 22 10 22 5 0 8 -10 6 -22z m1015 -9 c0 -5 -4 -9 -10 -9 -5 0 -10 7 -10
16 0 8 5 12 10 9 6 -3 10 -10 10 -16z m1021 -2 c-13 -13 -26 -3 -16 12 3 6 11
8 17 5 6 -4 6 -10 -1 -17z m-1817 -65 c1 -28 -3 -42 -11 -42 -9 0 -13 16 -13
46 0 59 22 55 24 -4z m816 22 c0 -8 -4 -12 -10 -9 -5 3 -10 10 -10 16 0 5 5 9
10 9 6 0 10 -7 10 -16z m985 6 c-3 -5 -10 -10 -16 -10 -5 0 -9 5 -9 10 0 6 7
10 16 10 8 0 12 -4 9 -10z m-958 -56 c-9 -9 -28 6 -21 18 4 6 10 6 17 -1 6 -6
8 -13 4 -17z m933 17 c0 -6 -4 -13 -10 -16 -5 -3 -10 1 -10 9 0 9 5 16 10 16
6 0 10 -4 10 -9z m-1260 -35 c0 -13 -7 -27 -16 -30 -27 -10 -54 -7 -54 8 0 8
-3 21 -6 30 -5 13 2 16 35 16 37 0 41 -3 41 -24z m357 -22 c-9 -9 -28 6 -21
18 4 6 10 6 17 -1 6 -6 8 -13 4 -17z m865 4 c-7 -7 -12 -8 -12 -2 0 14 12 26
19 19 2 -3 -1 -11 -7 -17z m-832 -39 c0 -5 -4 -9 -10 -9 -5 0 -10 7 -10 16 0
8 5 12 10 9 6 -3 10 -10 10 -16z m810 13 c0 -13 -12 -22 -22 -16 -10 6 -1 24
13 24 5 0 9 -4 9 -8z m-775 -42 c3 -5 -1 -10 -9 -10 -9 0 -16 5 -16 10 0 6 4
10 9 10 6 0 13 -4 16 -10z m735 0 c0 -5 -4 -10 -10 -10 -5 0 -10 5 -10 10 0 6
5 10 10 10 6 0 10 -4 10 -10z m-695 -30 c3 -5 -1 -10 -9 -10 -9 0 -16 5 -16
10 0 6 4 10 9 10 6 0 13 -4 16 -10z m655 0 c0 -5 -4 -10 -10 -10 -5 0 -10 5
-10 10 0 6 5 10 10 10 6 0 10 -4 10 -10z m-610 -28 c0 -5 61 -6 137 -4 l136 5
-23 -39 c-33 -55 -33 -56 -81 -59 -68 -4 -135 -25 -118 -36 10 -6 6 -9 -16
-10 -48 -1 -140 -6 -280 -13 l-130 -7 25 20 c77 62 209 121 271 121 16 0 34 7
41 15 14 16 38 20 38 7z m570 -2 c0 -5 -4 -10 -10 -10 -5 0 -10 5 -10 10 0 6
5 10 10 10 6 0 10 -4 10 -10z m-40 -18 c0 -13 -12 -22 -22 -16 -10 6 -1 24 13
24 5 0 9 -4 9 -8z m-50 -20 c0 -13 -12 -22 -22 -16 -10 6 -1 24 13 24 5 0 9
-4 9 -8z m-5690 -62 c0 -5 -7 -7 -15 -4 -8 4 -15 8 -15 10 0 2 7 4 15 4 8 0
15 -4 15 -10z m144 -21 c8 -9 5 -9 -11 0 -12 6 -31 11 -42 11 -12 0 -21 4 -21
9 0 12 60 -4 74 -20z m-233 6 c-18 -8 -36 -15 -40 -15 -13 1 45 29 59 29 8 0
0 -6 -19 -14z m5472 -22 c-7 -2 -19 -2 -25 0 -7 3 -2 5 12 5 14 0 19 -2 13 -5z
m-5520 -23 c-3 -12 -8 -19 -11 -16 -5 6 5 36 12 36 2 0 2 -9 -1 -20z m70 -27
c-13 -2 -33 -2 -45 0 -13 2 -3 4 22 4 25 0 35 -2 23 -4z m3922 -43 c3 -5 2
-10 -4 -10 -5 0 -13 5 -16 10 -3 6 -2 10 4 10 5 0 13 -4 16 -10z m475 -50 l0
-40 -115 0 c-63 0 -118 0 -122 0 -5 0 -9 11 -11 26 -7 52 -2 54 128 54 l120 0
0 -40z m-420 0 c0 -5 -4 -10 -10 -10 -5 0 -10 5 -10 10 0 6 5 10 10 10 6 0 10
-4 10 -10z m-4313 -37 c-3 -10 -5 -4 -5 12 0 17 2 24 5 18 2 -7 2 -21 0 -30z
m543 -3 c0 -11 -2 -20 -5 -20 -2 0 -9 9 -15 20 -9 16 -8 20 5 20 8 0 15 -9 15
-20z m60 3 c1 -17 1 -17 14 0 7 9 17 17 21 17 4 0 2 -7 -6 -16 -16 -20 -69
-47 -77 -40 -3 3 0 6 6 6 6 0 9 7 5 17 -4 11 -3 14 5 9 7 -4 12 -1 12 8 0 22
20 20 20 -1z m3630 3 c0 -19 -14 -28 -34 -20 -25 10 -19 34 9 34 15 0 25 -6
25 -14z m568 7 c-10 -2 -26 -2 -35 0 -10 3 -2 5 17 5 19 0 27 -2 18 -5z m-511
-50 c-3 -10 -5 -4 -5 12 0 17 2 24 5 18 2 -7 2 -21 0 -30z m-4230 21 c-3 -3
-12 -4 -19 -1 -8 3 -5 6 6 6 11 1 17 -2 13 -5z m186 -1 c-7 -2 -21 -2 -30 0
-10 3 -4 5 12 5 17 0 24 -2 18 -5z m5629 -130 c10 -9 18 -21 18 -26 0 -6 -9
-2 -19 7 -15 13 -20 14 -24 4 -4 -9 -6 -8 -6 4 -1 9 -7 19 -13 21 -7 3 -4 6 6
6 11 1 28 -6 38 -16z m320 -43 c-9 -11 -18 -17 -20 -15 -3 3 0 11 6 18 7 8 9
17 5 21 -4 4 0 4 9 1 15 -6 15 -8 0 -25z m-292 -20 c0 -11 -4 -20 -9 -20 -5 0
-17 -3 -26 -7 -16 -6 -16 -4 0 20 21 32 35 35 35 7z m-9 -60 c12 0 11 -41 -1
-60 -8 -11 -9 -8 -5 11 5 21 1 31 -17 44 -16 12 -18 16 -5 11 10 -3 23 -6 28
-6z m-5136 -20 c3 -5 1 -10 -4 -10 -6 0 -11 5 -11 10 0 6 2 10 4 10 3 0 8 -4
11 -10z m5103 -40 c10 -28 7 -40 -10 -40 -4 0 -8 15 -8 33 0 18 -6 39 -12 47
-11 12 -10 12 4 1 9 -6 21 -25 26 -41z m-43 -12 c-4 -18 -9 -35 -11 -37 -6 -6
-44 31 -44 42 0 6 9 2 20 -8 18 -17 19 -16 26 9 9 38 17 32 9 -6z m-4985 -29
c0 -5 -4 -9 -8 -9 -5 0 -9 7 -9 15 0 8 4 12 9 9 4 -3 8 -9 8 -15z m326 -204
c-26 -19 -42 -19 -26 0 7 8 20 15 29 15 13 -1 13 -3 -3 -15z m-441 -94 c0 -13
-146 -104 -154 -96 -3 3 5 25 17 48 28 53 27 55 -8 96 -16 19 -27 38 -24 43 7
11 169 -76 169 -91z m3080 -1 c0 -14 -149 -102 -153 -90 -2 6 6 25 17 44 27
44 27 51 -9 96 -16 20 -27 40 -23 43 8 9 168 -80 168 -93z m-2717 64 c-1 -5
-18 -7 -35 -5 -29 2 -33 0 -33 -23 0 -23 4 -26 35 -26 19 0 35 -4 35 -10 0 -5
-16 -10 -35 -10 -31 0 -35 -3 -35 -25 0 -22 4 -25 40 -25 22 0 40 -4 40 -10 0
-5 -22 -10 -50 -10 l-50 0 0 74 0 75 43 3 c47 3 50 3 45 -8z m226 -5 c16 -14
1 -20 -26 -10 -40 15 -73 -7 -73 -49 0 -27 6 -38 27 -50 23 -13 31 -13 49 -2
27 17 40 5 15 -14 -28 -20 -59 -17 -90 7 -46 36 -33 111 24 132 18 7 61 -1 74
-14z m226 -55 l0 -64 40 0 c22 0 40 -4 40 -10 0 -5 -22 -10 -49 -10 l-49 0 -6
58 c-5 48 -4 69 3 100 1 2 6 0 11 -3 6 -3 10 -35 10 -71z m223 49 c10 -10 17
-31 17 -54 0 -87 -117 -108 -151 -26 -31 75 71 136 134 80z m142 5 c7 -7 1 -9
-20 -5 -17 3 -37 2 -44 -3 -21 -13 -6 -37 28 -43 40 -8 55 -37 35 -65 -16 -24
-53 -29 -85 -12 -30 16 -22 30 10 17 15 -5 35 -7 45 -4 25 10 19 36 -11 43
-30 7 -63 31 -63 46 0 4 9 17 21 29 21 21 62 20 84 -3z m185 12 c34 -18 44
-48 25 -76 -12 -18 -13 -29 -5 -43 14 -27 13 -31 -8 -31 -9 0 -23 9 -30 20 -7
11 -19 20 -27 20 -8 0 -15 -9 -15 -20 0 -13 -7 -20 -20 -20 -18 0 -20 7 -20
74 0 74 0 75 28 79 49 7 53 7 72 -3z m170 -10 c0 -17 -7 -20 -40 -20 -22 0
-40 -4 -40 -10 0 -5 16 -10 35 -10 28 0 35 -4 35 -20 0 -16 -7 -20 -35 -20
-19 0 -35 -4 -35 -10 0 -5 18 -10 40 -10 33 0 40 -3 40 -20 0 -18 -7 -20 -54
-20 l-54 0 -4 73 c-2 39 -2 75 0 80 2 4 28 7 58 7 47 0 54 -2 54 -20z m67 -31
c8 -22 19 -39 23 -39 4 0 14 18 23 40 14 37 40 60 53 47 3 -2 -9 -39 -27 -81
-40 -96 -59 -100 -94 -19 -14 31 -28 67 -31 79 -10 41 35 17 53 -27z m148 -30
c0 -62 -3 -74 -17 -77 -16 -3 -18 6 -18 76 0 71 2 80 18 78 14 -3 17 -14 17
-77z m126 70 c27 -14 14 -29 -27 -29 -41 0 -45 -15 -7 -25 38 -9 53 -23 53
-51 0 -26 -26 -44 -64 -44 -38 0 -56 10 -56 32 0 12 5 18 13 15 65 -24 89 -9
30 20 -43 21 -53 46 -27 74 19 21 55 25 85 8z m332 -17 c10 -9 17 -29 17 -53
0 -52 -35 -79 -101 -79 l-49 0 0 74 c0 51 4 76 13 79 23 8 102 -6 120 -21z
m171 3 c54 -50 19 -135 -57 -135 -72 0 -106 95 -51 139 35 28 75 26 108 -4z
m134 19 c37 -10 24 -40 -16 -36 -39 4 -43 -13 -5 -23 54 -13 68 -42 36 -77
-17 -19 -77 -25 -101 -10 -19 12 -4 45 17 36 26 -10 51 -10 51 1 0 6 -13 13
-28 17 -26 7 -52 32 -52 50 0 15 40 48 58 48 9 0 27 -3 40 -6z m2407 -6 c37
-17 25 -34 -23 -30 -33 3 -43 -1 -52 -17 -20 -38 16 -78 53 -59 12 6 23 5 34
-3 13 -12 13 -14 -3 -26 -22 -16 -74 -16 -95 0 -20 15 -39 51 -39 72 0 23 54
75 79 75 11 0 32 -5 46 -12z m-4767 -55 l26 -58 25 58 c29 64 61 83 34 20 -26
-65 -53 -113 -62 -113 -6 0 -33 55 -69 142 -2 4 1 8 8 8 6 0 23 -26 38 -57z
m282 -12 c0 -39 -4 -73 -10 -76 -6 -4 -10 22 -10 69 0 44 4 76 10 76 6 0 10
-30 10 -69z m212 13 c2 -41 8 -60 21 -68 32 -20 52 4 55 68 4 75 22 72 22 -3
0 -67 -15 -91 -57 -91 -45 0 -63 26 -63 92 0 74 18 76 22 2z m1387 -12 c17
-38 31 -72 31 -75 0 -14 -38 -7 -44 8 -3 9 -18 15 -40 15 -21 0 -36 -6 -40
-15 -3 -8 -15 -15 -27 -15 -11 0 -19 4 -17 8 50 121 62 142 83 142 17 0 29
-14 54 -68z m1281 53 c0 -11 -11 -15 -40 -15 -22 0 -40 -4 -40 -10 0 -5 16
-10 35 -10 28 0 35 -4 35 -20 0 -16 -7 -20 -35 -20 -19 0 -35 -4 -35 -10 0 -5
18 -10 40 -10 33 0 40 -3 40 -20 0 -18 -7 -20 -55 -20 l-55 0 0 75 0 75 55 0
c42 0 55 -3 55 -15z m98 -27 l32 -42 0 42 c0 35 3 42 20 42 18 0 20 -7 20 -70
0 -92 -16 -101 -71 -39 l-38 44 -1 -42 c0 -31 -4 -43 -15 -43 -12 0 -15 15
-15 75 0 65 2 75 18 75 10 0 32 -19 50 -42z m212 27 c0 -8 -9 -15 -20 -15 -16
0 -19 -8 -22 -57 -2 -46 -7 -59 -20 -61 -16 -3 -18 5 -18 57 0 58 -1 61 -25
61 -16 0 -25 6 -25 15 0 12 14 15 65 15 51 0 65 -3 65 -15z m135 -5 c18 -20
14 -70 -6 -70 -6 0 -6 -7 1 -20 6 -11 14 -20 19 -20 4 0 20 29 36 65 22 53 32
65 50 65 18 0 28 -13 54 -70 17 -39 31 -72 31 -75 0 -12 -41 -3 -46 10 -4 9
-19 15 -39 15 -20 0 -35 -6 -39 -15 -9 -24 -83 -20 -98 5 -7 11 -18 20 -24 20
-7 0 -14 -9 -17 -20 -3 -11 -12 -20 -21 -20 -13 0 -16 13 -16 75 l0 75 48 0
c36 0 54 -5 67 -20z m327 3 c11 -10 18 -30 18 -54 0 -52 -35 -79 -101 -79
l-49 0 0 75 0 75 57 0 c38 0 62 -5 75 -17z m158 -49 c16 -37 30 -71 30 -75 0
-15 -38 -10 -44 6 -3 9 -18 15 -40 15 -21 0 -36 -6 -40 -15 -7 -18 -36 -20
-36 -2 0 6 12 40 27 74 22 50 33 63 50 63 18 0 29 -13 53 -66z m225 42 c13
-19 14 -29 5 -45 -13 -24 -41 -41 -69 -41 -15 0 -21 -6 -21 -21 0 -14 -5 -19
-17 -17 -15 3 -19 16 -21 76 l-3 72 55 0 c48 0 58 -3 71 -24z m142 -48 c27
-63 29 -74 15 -77 -8 -2 -21 4 -27 13 -15 20 -74 21 -81 1 -4 -8 -15 -15 -26
-15 -22 0 -20 10 19 96 19 42 30 54 47 54 18 0 28 -14 53 -72z m154 62 c22
-12 25 -50 7 -80 -10 -15 -10 -22 0 -32 18 -18 15 -28 -8 -28 -10 0 -24 9 -30
20 -6 11 -17 20 -24 20 -8 0 -16 -9 -19 -20 -3 -11 -12 -20 -21 -20 -13 0 -16
13 -16 75 l0 75 46 0 c25 0 54 -5 65 -10z m309 -5 c0 -10 -11 -15 -35 -15 -19
0 -35 -4 -35 -10 0 -5 14 -10 30 -10 23 0 30 -4 30 -20 0 -16 -7 -20 -30 -20
-43 0 -37 -18 8 -22 25 -2 37 -8 37 -18 0 -11 -14 -16 -57 -18 l-58 -3 0 76 0
75 55 0 c42 0 55 -3 55 -15z m70 -39 l0 -54 39 -4 40 -3 25 57 c35 82 57 80
97 -7 16 -35 29 -69 29 -75 0 -16 -30 -12 -36 5 -4 10 -20 15 -44 15 -24 0
-40 -5 -44 -15 -4 -11 -22 -15 -76 -15 l-70 0 0 75 c0 68 2 75 20 75 18 0 20
-7 20 -54z m380 32 c25 -27 26 -69 2 -98 -14 -18 -32 -24 -75 -28 l-57 -4 0
76 0 76 55 0 c43 0 58 -5 75 -22z m153 -40 c15 -35 27 -69 27 -75 0 -18 -29
-16 -36 2 -4 9 -19 15 -40 15 -22 0 -37 -6 -40 -15 -4 -8 -15 -15 -26 -15 -22
0 -20 10 19 96 19 42 30 54 47 54 17 0 27 -13 49 -62z m-1733 -163 c-7 -8 -19
-15 -27 -15 -13 0 -13 3 -3 15 7 8 19 15 27 15 13 0 13 -3 3 -15z m1593 -1
c-5 -13 -63 -15 -63 -3 0 11 11 16 39 16 20 0 27 -5 24 -13z m-4516 -36 c22
-18 3 -28 -37 -22 -36 6 -40 4 -52 -21 -11 -25 -10 -29 11 -47 29 -22 45 -19
49 10 2 14 11 22 23 22 27 0 27 -55 0 -70 -56 -30 -131 9 -131 68 0 28 28 63
60 75 18 7 61 -1 77 -15z m315 -8 c22 -27 23 -44 2 -64 -14 -14 -14 -18 0 -37
14 -21 16 -19 47 50 25 56 36 71 53 71 17 0 28 -15 53 -72 27 -63 29 -74 15
-77 -8 -2 -21 4 -27 13 -15 20 -74 21 -81 1 -10 -24 -86 -20 -102 5 -7 11 -17
20 -22 20 -6 0 -10 -9 -10 -20 0 -15 -7 -20 -25 -20 -24 0 -25 2 -25 74 0 50
4 76 13 80 26 12 92 -3 109 -24z m2889 20 c16 0 38 -65 32 -91 -19 -80 -108
-79 -128 1 -12 51 32 108 73 94 8 -2 18 -4 23 -4z m-3991 -10 c0 -5 -20 -10
-45 -10 -38 0 -45 -3 -45 -20 0 -17 7 -20 40 -20 22 0 40 -4 40 -10 0 -5 -18
-10 -40 -10 -36 0 -40 -2 -40 -25 0 -23 4 -25 45 -25 25 0 45 -4 45 -10 0 -5
-25 -10 -55 -10 l-55 0 0 75 0 75 55 0 c30 0 55 -4 55 -10z m194 4 c31 -12 15
-24 -24 -18 -26 4 -45 2 -55 -6 -20 -16 -19 -64 1 -84 17 -18 60 -21 69 -6 4
6 11 8 16 4 18 -11 -12 -34 -45 -34 -76 1 -112 94 -53 135 22 16 64 19 91 9z
m166 -14 c30 -30 27 -83 -6 -109 -36 -28 -79 -27 -109 4 -30 30 -32 64 -4 99
26 33 88 37 119 6z m98 -25 c15 -25 30 -45 33 -45 4 0 19 20 33 45 15 25 31
45 36 45 6 0 10 -34 10 -75 0 -85 -17 -103 -22 -22 l-3 52 -23 -42 c-12 -24
-26 -43 -30 -43 -5 0 -19 19 -33 43 l-24 42 -3 -52 c-5 -81 -22 -63 -22 22 0
45 4 75 10 75 6 0 23 -20 38 -45z m475 -9 c39 -86 41 -96 19 -96 -11 0 -22 7
-26 15 -7 20 -66 19 -81 -1 -6 -9 -18 -15 -27 -13 -13 3 -10 16 16 76 25 58
35 73 53 73 16 0 27 -13 46 -54z m433 17 l33 -38 1 38 c0 30 4 37 20 37 18 0
20 -7 20 -75 0 -89 -13 -97 -66 -37 l-33 37 -1 -37 c0 -31 -4 -38 -20 -38 -18
0 -20 7 -20 75 0 89 13 97 66 38z m214 22 c0 -8 -9 -15 -20 -15 -18 0 -20 -7
-20 -60 0 -53 -2 -60 -20 -60 -18 0 -20 7 -20 60 0 57 -1 60 -25 60 -16 0 -25
6 -25 15 0 12 14 15 65 15 51 0 65 -3 65 -15z m60 -60 c0 -68 -2 -75 -20 -75
-18 0 -20 7 -20 75 0 68 2 75 20 75 18 0 20 -7 20 -75z m146 2 c26 -60 29 -73
16 -76 -9 -2 -21 4 -27 13 -15 20 -74 21 -81 1 -4 -8 -15 -15 -26 -15 -22 0
-20 10 19 96 19 41 30 54 46 54 18 0 28 -15 53 -73z m1294 63 c0 -5 -20 -10
-45 -10 -38 0 -45 -3 -45 -20 0 -17 7 -20 40 -20 22 0 40 -4 40 -10 0 -5 -18
-10 -40 -10 -36 0 -40 -2 -40 -25 0 -23 4 -25 45 -25 25 0 45 -4 45 -10 0 -5
-25 -10 -55 -10 l-55 0 0 75 0 75 55 0 c30 0 55 -4 55 -10z m81 -41 l32 -50
28 50 c16 28 34 51 39 51 6 0 10 -33 10 -75 0 -43 -4 -75 -10 -75 -5 0 -10 24
-10 53 l-1 52 -25 -42 c-14 -24 -29 -43 -33 -43 -4 0 -18 19 -32 43 l-24 42
-3 -52 c-5 -81 -22 -63 -22 22 0 44 4 75 10 75 6 0 24 -23 41 -51z m307 -21
c32 -69 35 -105 5 -60 -21 30 -89 32 -98 2 -6 -20 -25 -28 -25 -11 0 23 61
141 72 141 7 -1 28 -33 46 -72z m142 62 c0 -5 -11 -10 -25 -10 -24 0 -25 -2
-25 -65 0 -37 -4 -65 -10 -65 -6 0 -10 28 -10 65 0 63 -1 65 -25 65 -14 0 -25
5 -25 10 0 6 27 10 60 10 33 0 60 -4 60 -10z m130 0 c0 -5 -20 -10 -45 -10
-38 0 -45 -3 -45 -20 0 -17 7 -20 40 -20 22 0 40 -4 40 -10 0 -5 -18 -10 -40
-10 -36 0 -40 -2 -40 -25 0 -23 4 -25 45 -25 25 0 45 -4 45 -10 0 -5 -25 -10
-55 -10 l-55 0 0 75 0 75 55 0 c30 0 55 -4 55 -10z m130 -65 c0 -68 -2 -75
-20 -75 -18 0 -20 7 -20 60 0 47 -3 60 -15 60 -8 0 -15 7 -15 15 0 10 11 15
35 15 l35 0 0 -75z m214 54 l14 -21 14 21 c7 12 23 21 36 21 l23 0 -20 -29
c-26 -36 -26 -49 -1 -81 25 -32 25 -40 1 -40 -11 0 -27 10 -36 23 l-16 22 -19
-22 c-10 -13 -28 -23 -39 -23 -21 0 -21 1 5 40 l26 39 -21 30 c-26 36 -26 41
-2 41 11 0 27 -10 35 -21z m231 -31 l40 -52 3 52 c5 80 22 62 22 -23 0 -41 -3
-75 -8 -75 -4 0 -27 26 -52 58 l-45 57 -3 -57 c-4 -85 -22 -71 -22 17 0 92 10
95 65 23z m235 30 c68 -73 -45 -174 -115 -103 -30 30 -32 64 -4 99 27 34 88
37 119 4z m214 16 c31 -12 15 -22 -31 -21 -40 2 -49 -1 -59 -22 -25 -48 31
-101 77 -73 11 7 20 8 24 2 8 -12 -27 -30 -60 -30 -31 0 -75 44 -75 75 0 38
37 75 75 75 18 0 40 -3 49 -6z m135 -60 c17 -36 31 -70 31 -75 0 -17 -19 -9
-25 11 -9 30 -77 28 -98 -2 -8 -13 -18 -20 -21 -17 -9 9 56 149 70 149 7 0 26
-30 43 -66z m159 54 c15 -15 16 -60 1 -75 -9 -9 -8 -18 5 -37 13 -21 14 -26 2
-26 -7 0 -21 11 -30 25 -10 16 -26 25 -41 25 -20 0 -25 -5 -25 -25 0 -14 -4
-25 -10 -25 -6 0 -10 32 -10 75 l0 75 48 0 c26 0 53 -5 60 -12z m142 2 c0 -5
-11 -10 -25 -10 -24 0 -25 -2 -25 -65 0 -37 -4 -65 -10 -65 -6 0 -10 28 -10
65 0 63 -1 65 -25 65 -14 0 -25 5 -25 10 0 6 27 10 60 10 33 0 60 -4 60 -10z
m115 -62 c34 -70 38 -106 8 -60 -21 30 -89 32 -98 2 -3 -11 -13 -20 -20 -20
-10 0 -8 14 11 57 36 80 43 93 55 93 5 0 25 -32 44 -72z m175 52 c30 -30 27
-83 -6 -109 -36 -28 -79 -27 -109 4 -30 30 -32 64 -4 99 26 33 88 37 119 6z
m-1323 -455 c-6 -16 -77 -16 -77 0 0 10 12 13 40 12 23 -1 39 -6 37 -12z
m-4476 -47 c43 -24 77 -47 76 -53 -4 -12 -147 -99 -153 -92 -3 2 5 25 17 50
l22 46 -25 33 c-54 73 -47 75 63 16z m3080 0 c43 -24 77 -47 76 -53 -4 -12
-147 -99 -153 -92 -3 2 5 25 17 50 l22 46 -26 35 c-26 33 -34 56 -21 56 3 0
41 -19 85 -42z m-2771 2 c39 -39 12 -90 -47 -90 -26 0 -33 -4 -33 -20 0 -11
-7 -20 -15 -20 -12 0 -15 15 -15 75 l0 75 45 0 c32 0 51 -6 65 -20z m152 3
c22 -19 24 -56 3 -73 -12 -10 -12 -15 2 -36 14 -23 14 -24 -4 -24 -11 0 -28 9
-38 20 -10 11 -22 20 -27 20 -4 0 -8 -9 -8 -20 0 -13 -7 -20 -20 -20 -18 0
-20 7 -20 75 l0 75 47 0 c29 0 53 -6 65 -17z m158 2 c0 -11 -11 -15 -40 -15
-29 0 -40 -4 -40 -15 0 -10 11 -15 35 -15 24 0 35 -5 35 -15 0 -10 -11 -15
-35 -15 -24 0 -35 -5 -35 -15 0 -11 11 -15 40 -15 29 0 40 -4 40 -15 0 -12
-13 -15 -60 -15 l-60 0 0 75 0 75 60 0 c47 0 60 -3 60 -15z m141 4 c16 -8 18
-13 9 -24 -9 -11 -17 -11 -35 -3 -32 14 -55 -4 -55 -43 0 -32 28 -46 58 -30
13 7 22 7 30 -1 15 -15 -3 -38 -31 -38 -16 0 -18 -3 -10 -11 6 -6 9 -18 6 -25
-6 -16 -53 -19 -53 -4 0 6 7 10 15 10 9 0 -1 15 -25 39 -47 46 -52 80 -15 116
26 27 72 33 106 14z m164 -14 c51 -50 16 -125 -57 -125 -42 0 -88 34 -88 65 0
22 27 72 42 78 34 14 80 6 103 -18z m150 5 c0 -11 -9 -14 -32 -12 -44 4 -50
-14 -8 -28 57 -19 70 -73 20 -86 -38 -10 -90 0 -90 16 0 11 9 14 38 12 47 -4
48 13 2 28 -71 23 -48 94 29 88 29 -2 41 -8 41 -18z m198 -34 c39 -86 41 -96
19 -96 -11 0 -22 7 -26 15 -3 9 -18 15 -36 15 -18 0 -33 -6 -36 -15 -6 -16
-44 -21 -44 -6 0 4 14 38 30 75 39 85 59 88 93 12z m172 40 c12 -9 16 -20 12
-36 -3 -13 -2 -32 4 -42 6 -12 6 -25 -1 -38 -9 -17 -21 -20 -75 -20 l-65 0 0
75 0 75 53 0 c29 0 61 -6 72 -14z m158 -58 l32 -73 5 70 c5 63 7 70 28 73 21
3 22 0 22 -72 l0 -76 -49 0 c-34 0 -51 4 -55 15 -3 9 -18 15 -36 15 -18 0 -33
-6 -36 -15 -4 -8 -15 -15 -26 -15 -22 0 -21 9 18 96 35 79 56 75 97 -18z m158
50 l12 -22 17 22 c10 12 28 22 39 22 21 0 21 0 -3 -37 -26 -38 -26 -40 10 -90
16 -22 15 -23 -7 -23 -14 0 -30 9 -38 22 l-14 22 -17 -22 c-10 -12 -28 -22
-39 -22 -23 0 -21 7 14 55 13 19 12 24 -11 58 l-25 37 25 0 c16 0 30 -8 37
-22z m214 16 c18 -7 45 -55 45 -79 0 -9 -11 -27 -25 -40 -50 -51 -145 -20
-145 47 0 56 67 94 125 72z m250 -19 c32 -31 32 -69 0 -100 -19 -20 -34 -25
-75 -25 l-50 0 0 75 0 75 50 0 c41 0 56 -5 75 -25z m150 -53 c24 -51 30 -72
20 -72 -7 0 -16 8 -19 18 -5 14 -15 16 -51 14 -30 -3 -45 -9 -45 -18 0 -8 -7
-14 -14 -14 -13 0 -13 5 1 38 30 72 54 113 64 110 6 -2 26 -36 44 -76z m1020
1 l34 -73 -24 0 c-12 0 -25 7 -29 15 -3 9 -18 15 -36 15 -18 0 -33 -6 -36 -15
-4 -8 -15 -15 -26 -15 -22 0 -20 10 19 96 35 76 54 71 98 -23z m153 61 c43
-30 16 -94 -40 -94 -21 0 -28 -5 -28 -20 0 -13 -7 -20 -20 -20 -18 0 -20 7
-20 75 l0 75 43 0 c23 0 53 -7 65 -16z m154 -1 c22 -19 24 -56 3 -73 -12 -10
-12 -15 2 -36 14 -23 14 -24 -6 -24 -11 0 -26 9 -33 20 -7 11 -18 20 -25 20
-7 0 -13 -9 -13 -20 0 -13 -7 -20 -20 -20 -18 0 -20 7 -20 75 l0 75 47 0 c29
0 53 -6 65 -17z m173 -8 c30 -30 32 -64 4 -99 -29 -37 -99 -37 -128 0 -28 35
-26 65 4 98 32 35 86 36 120 1z m82 -20 c10 -25 20 -45 23 -45 3 0 13 20 23
45 13 31 25 45 38 45 10 0 19 -2 19 -5 0 -3 -14 -36 -31 -75 -42 -92 -60 -93
-100 -5 -34 76 -35 85 -10 85 13 0 25 -14 38 -45z m222 -23 c17 -38 31 -72 31
-75 0 -14 -38 -7 -44 8 -7 20 -62 19 -74 -1 -5 -9 -18 -14 -29 -12 -19 3 -18
6 13 76 44 95 60 96 103 4z m162 57 c16 -8 18 -13 9 -24 -9 -11 -17 -11 -37
-2 -22 10 -28 8 -44 -12 -23 -28 -23 -35 -3 -55 18 -18 50 -21 59 -6 5 8 11 7
21 -1 18 -15 17 -16 48 54 35 79 54 77 95 -11 17 -38 31 -72 31 -75 0 -14 -38
-7 -44 8 -3 9 -18 15 -36 15 -18 0 -33 -6 -36 -15 -4 -8 -17 -15 -31 -15 -16
0 -22 4 -17 13 6 10 4 10 -7 0 -7 -7 -22 -13 -33 -13 -15 0 -17 -3 -9 -11 6
-6 9 -18 6 -25 -6 -16 -53 -19 -53 -4 0 6 7 10 15 10 9 0 -1 15 -25 39 -47 46
-52 80 -15 116 26 27 72 33 106 14z m324 -14 c30 -30 32 -64 4 -99 -29 -37
-99 -37 -128 0 -12 15 -21 38 -21 51 0 37 42 73 85 73 25 0 44 -8 60 -25z
m145 -50 c0 -68 -2 -75 -20 -75 -18 0 -20 7 -20 75 0 68 2 75 20 75 18 0 20
-7 20 -75z m85 35 c14 -22 27 -40 29 -40 3 0 15 18 27 40 14 24 30 40 41 40
16 0 18 -9 18 -75 0 -68 -2 -75 -20 -75 -16 0 -20 7 -20 38 l0 37 -20 -32
c-11 -18 -23 -33 -28 -33 -4 0 -17 15 -27 33 l-20 32 -3 -37 c-2 -25 -8 -38
-18 -38 -11 0 -14 16 -14 75 0 89 15 98 55 35z m255 25 c0 -10 -11 -15 -35
-15 -24 0 -35 -5 -35 -15 0 -10 11 -15 35 -15 24 0 35 -5 35 -15 0 -10 -11
-15 -35 -15 -24 0 -35 -5 -35 -15 0 -11 11 -15 40 -15 29 0 40 -4 40 -15 0
-12 -13 -15 -60 -15 l-60 0 0 75 0 75 55 0 c42 0 55 -3 55 -15z m154 -6 c19
-15 26 -30 26 -55 0 -52 -28 -74 -95 -74 l-55 0 0 75 0 75 49 0 c34 0 56 -6
75 -21z m86 -54 c0 -68 -2 -75 -20 -75 -18 0 -20 7 -20 75 0 68 2 75 20 75 18
0 20 -7 20 -75z m145 13 c15 -35 29 -69 32 -75 3 -8 -3 -13 -16 -13 -12 0 -24
7 -27 15 -4 9 -19 15 -40 15 -24 0 -34 -5 -34 -15 0 -9 -9 -15 -24 -15 l-25 0
25 57 c38 86 43 93 63 93 13 0 26 -18 46 -62z m155 48 c0 -8 -10 -16 -22 -18
-20 -3 -23 -10 -26 -60 -2 -42 -7 -58 -17 -58 -10 0 -15 16 -17 58 -3 50 -6
57 -25 60 -13 2 -23 10 -23 18 0 11 15 14 65 14 50 0 65 -3 65 -14z m127 -63
l32 -73 -24 0 c-16 0 -25 6 -25 15 0 10 -10 15 -34 15 -21 0 -36 -6 -40 -15
-3 -8 -15 -15 -27 -15 -13 0 -19 5 -16 13 67 165 82 172 134 60z m-1752 -153
c-18 -20 -17 -20 8 -20 15 0 27 -4 27 -10 0 -5 -20 -10 -45 -10 -41 0 -45 -2
-45 -25 0 -23 4 -25 41 -25 24 0 38 -4 34 -10 -3 -5 -22 -10 -41 -10 -29 0
-34 -3 -34 -24 0 -22 5 -25 48 -29 46 -3 46 -3 -10 -5 l-58 -2 0 75 c0 65 2
75 18 75 9 0 23 9 30 20 7 11 20 20 29 20 14 0 14 -2 -2 -20z m-3755 -34 c0
-8 -10 -16 -22 -18 -20 -3 -23 -10 -26 -60 -2 -42 -7 -58 -17 -58 -10 0 -15
16 -17 58 -3 50 -6 57 -25 60 -13 2 -23 10 -23 18 0 11 15 14 65 14 50 0 65
-3 65 -14z m127 -63 l32 -73 -24 0 c-16 0 -25 6 -25 15 0 10 -10 15 -34 15
-21 0 -36 -6 -40 -15 -3 -8 -15 -15 -27 -15 -11 0 -19 4 -17 8 50 122 62 143
82 140 14 -2 29 -24 53 -75z m154 66 c14 -7 20 -19 18 -37 -1 -15 2 -35 6 -46
15 -35 -7 -51 -74 -54 l-61 -3 0 76 0 75 46 0 c25 0 54 -5 65 -11z m169 -4 c0
-11 -11 -15 -40 -15 -29 0 -40 -4 -40 -15 0 -10 11 -15 35 -15 24 0 35 -5 35
-15 0 -10 -11 -15 -35 -15 -24 0 -35 -5 -35 -15 0 -11 11 -15 40 -15 29 0 40
-4 40 -15 0 -12 -13 -15 -60 -15 l-60 0 0 75 0 75 60 0 c47 0 60 -3 60 -15z
m60 -44 l0 -59 40 -4 40 -3 27 63 c36 85 55 82 100 -15 l32 -73 -24 0 c-16 0
-25 6 -25 15 0 21 -66 21 -74 0 -4 -11 -23 -15 -81 -15 l-75 0 0 75 c0 68 2
75 20 75 18 0 20 -7 20 -59z m420 44 c0 -10 -11 -15 -35 -15 -28 0 -35 -4 -35
-20 0 -16 7 -20 35 -20 24 0 35 -5 35 -15 0 -10 -11 -15 -35 -15 -31 0 -35 -3
-35 -25 0 -18 -5 -25 -20 -25 -18 0 -20 7 -20 75 l0 75 55 0 c42 0 55 -3 55
-15z m60 -60 c0 -68 -2 -75 -20 -75 -18 0 -20 7 -20 75 0 68 2 75 20 75 18 0
20 -7 20 -75z m142 58 c20 -18 24 -63 6 -81 -7 -7 -27 -12 -45 -12 -26 0 -33
-4 -33 -20 0 -13 -7 -20 -20 -20 -18 0 -20 7 -20 75 l0 75 47 0 c29 0 53 -6
65 -17z m158 2 c0 -11 -11 -15 -40 -15 -29 0 -40 -4 -40 -15 0 -10 11 -15 35
-15 24 0 35 -5 35 -15 0 -10 -11 -15 -35 -15 -24 0 -35 -5 -35 -15 0 -11 11
-15 40 -15 34 0 40 -3 40 -21 0 -19 -4 -21 -37 -15 -21 3 -48 6 -60 6 -22 0
-23 4 -23 75 l0 75 60 0 c47 0 60 -3 60 -15z m1783 4 c30 -14 50 -54 41 -83
-13 -43 -34 -56 -91 -56 l-53 0 0 75 0 75 40 0 c21 0 50 -5 63 -11z m191 -10
c46 -36 32 -108 -24 -128 -37 -12 -72 -1 -94 31 -23 32 -20 61 10 92 32 32 72
34 108 5z m221 8 c11 -9 14 -16 7 -21 -6 -3 -13 -2 -17 4 -9 15 -52 12 -69 -6
-9 -8 -16 -28 -16 -43 0 -45 36 -64 88 -47 34 11 26 -10 -8 -23 -38 -13 -73
-1 -96 33 -42 66 47 149 111 103z m143 -3 c25 -18 29 -56 7 -74 -14 -11 -14
-15 0 -36 14 -21 14 -24 1 -24 -9 0 -20 9 -26 20 -6 12 -21 20 -35 20 -18 0
-25 -5 -25 -20 0 -11 -4 -20 -10 -20 -6 0 -10 32 -10 75 l0 75 38 0 c21 0 48
-7 60 -16z m306 -5 c19 -15 26 -29 26 -56 0 -54 -23 -73 -87 -73 l-53 0 0 75
0 75 44 0 c29 0 52 -7 70 -21z m76 -54 c0 -43 -4 -75 -10 -75 -6 0 -10 32 -10
75 0 43 4 75 10 75 6 0 10 -32 10 -75z m150 65 c0 -5 -11 -10 -25 -10 -24 0
-25 -2 -25 -65 0 -37 -4 -65 -10 -65 -6 0 -10 28 -10 65 l0 65 -30 0 c-16 0
-30 5 -30 10 0 6 28 10 65 10 37 0 65 -4 65 -10z m134 -11 c46 -36 32 -108
-24 -128 -37 -12 -72 -1 -94 31 -23 32 -20 61 10 92 32 32 72 34 108 5z"/>
<path d="M10236 3458 c-32 -50 -47 -106 -44 -164 3 -56 4 -59 31 -62 18 -2 29
2 33 12 9 22 136 23 154 1 17 -21 47 -19 60 4 18 35 11 99 -19 166 l-30 65
-85 0 c-78 0 -87 -2 -100 -22z m184 -17 c5 -11 14 -31 20 -45 l10 -26 -115 0
c-63 0 -115 4 -115 9 0 5 7 25 15 45 l15 36 80 0 c68 0 81 -3 90 -19z m-162
-115 c-2 -13 -10 -21 -23 -21 -23 0 -33 34 -14 45 20 13 40 -1 37 -24z m197
-1 c0 -22 -31 -33 -47 -17 -17 17 -1 44 24 40 15 -2 23 -10 23 -23z m-75 -6
c0 -18 -5 -20 -47 -17 -36 2 -49 7 -51 21 -3 14 4 17 47 17 45 0 51 -3 51 -21z"/>
<path d="M7034 3405 c-12 -39 -10 -45 21 -45 31 0 34 7 22 46 -13 44 -29 43
-43 -1z"/>
<path d="M8223 2956 c-65 -30 -92 -119 -57 -192 20 -42 59 -64 112 -64 74 0
118 61 110 151 -9 89 -88 139 -165 105z"/>
<path d="M6960 2900 l0 -60 54 0 c45 0 58 4 70 22 37 53 3 98 -74 98 l-50 0 0
-60z"/>
<path d="M7612 2890 c-5 -14 -17 -42 -25 -62 l-16 -38 50 0 c56 0 56 -1 19 85
-18 40 -18 40 -28 15z"/>
<path d="M10327 3003 c-10 -9 -8 -41 2 -47 16 -10 41 5 41 24 0 10 -7 21 -16
24 -19 7 -19 7 -27 -1z"/>
<path d="M10254 2817 c-8 -35 -1 -62 16 -62 11 0 15 11 15 39 0 45 -21 60 -31
23z"/>
<path d="M10441 2818 c-10 -28 -2 -68 14 -68 18 0 28 46 15 70 -14 25 -19 25
-29 -2z"/>
<path d="M10626 2815 c-9 -34 1 -65 20 -65 12 0 14 10 12 42 -3 48 -23 61 -32
23z"/>
<path d="M8687 2483 c-4 -3 -7 -13 -7 -22 1 -13 3 -13 11 2 11 19 8 33 -4 20z"/>
<path d="M8682 2321 c-18 -11 -27 -84 -14 -107 13 -23 15 -24 333 -30 196 -5
282 -3 297 5 14 7 23 8 27 1 10 -15 63 -12 90 6 19 12 25 13 25 3 0 -8 6 -5
15 7 17 23 20 95 3 112 -7 7 -33 12 -60 12 -46 0 -47 -1 -54 -37 -6 -30 -3
-39 15 -54 38 -31 73 -6 66 49 -2 19 0 30 5 27 6 -4 10 -21 10 -39 0 -58 -58
-87 -95 -46 -10 11 -22 17 -26 14 -5 -3 -9 9 -9 26 0 18 4 29 10 25 6 -3 10 1
10 9 0 8 -4 18 -10 21 -5 3 -10 0 -10 -7 0 -10 -2 -10 -8 0 -12 18 -503 13
-510 -6 -2 -7 2 -11 10 -10 8 2 14 -9 16 -31 2 -23 0 -32 -9 -29 -7 2 -21 -4
-31 -14 -22 -22 -51 -23 -68 -3 -7 9 -20 13 -28 10 -10 -4 -12 -1 -7 12 4 10
10 27 13 38 2 11 9 26 15 33 11 14 -1 16 -21 3z m728 -35 c0 -2 3 -11 6 -20 5
-12 -1 -16 -24 -16 -34 0 -52 18 -31 31 14 9 49 12 49 5z"/>
<path d="M8713 2318 c-32 -41 -17 -88 27 -88 35 0 55 30 44 63 -5 12 -7 25 -6
30 3 12 -55 8 -65 -5z m57 -38 c13 -9 13 -11 0 -20 -17 -11 -53 -13 -63 -4 -9
9 15 33 33 33 8 1 22 -4 30 -9z"/>
<path d="M5236 2265 c-22 -8 -42 -13 -45 -13 -14 3 -41 -15 -41 -27 0 -6 -9
-20 -20 -30 -11 -10 -20 -22 -20 -26 0 -21 83 -49 157 -54 163 -10 219 -17
241 -31 19 -13 29 -13 60 -3 47 16 66 33 59 53 -8 21 -57 33 -67 16 -5 -8 -22
4 -55 39 -65 70 -174 120 -159 74 5 -17 5 -17 -9 0 -17 20 -48 21 -101 2z
m-46 -19 c0 -2 -8 -10 -17 -17 -16 -13 -17 -12 -4 4 13 16 21 21 21 13z m131
-56 c12 -33 14 -47 5 -52 -21 -14 -34 -8 -41 19 -9 39 -23 53 -51 53 -33 0
-30 18 4 23 56 9 66 4 83 -43z m108 17 c22 -18 48 -43 57 -55 16 -23 16 -23
-25 -20 -39 3 -43 6 -66 56 -13 28 -20 52 -16 52 5 0 27 -15 50 -33z m-229
-15 c0 -15 -2 -15 -10 -2 -13 20 -13 33 0 25 6 -3 10 -14 10 -23z m410 -67 c0
-2 -7 -5 -15 -9 -9 -3 -15 0 -15 9 0 9 6 12 15 9 8 -4 15 -7 15 -9z"/>
<path d="M5077 2253 c-4 -3 -7 -16 -6 -27 0 -19 1 -19 10 3 10 24 8 36 -4 24z"/>
<path d="M10090 2104 c-52 -14 -126 -41 -165 -60 -58 -29 -88 -37 -170 -45
-55 -6 -142 -7 -193 -4 -83 6 -94 9 -103 28 -8 19 -9 18 -5 -8 3 -21 -3 -38
-21 -59 -20 -24 -23 -36 -18 -65 15 -77 26 -87 109 -95 41 -4 123 -4 183 0
l108 7 54 55 c30 29 50 57 45 60 -17 12 -56 82 -46 82 5 0 16 -9 23 -20 14
-20 16 -20 119 -5 102 15 106 17 140 55 19 21 51 48 70 59 19 12 28 21 19 21
-28 0 -91 -31 -110 -53 -14 -16 -19 -18 -19 -7 -1 12 -3 11 -14 -3 -14 -19
-33 -7 -21 13 3 6 1 10 -4 10 -6 0 -11 -10 -11 -21 0 -17 -5 -20 -25 -17 -28
6 -33 -6 -9 -20 11 -6 13 -12 6 -16 -14 -9 -62 14 -62 30 0 18 94 64 158 75
58 11 103 29 72 28 -8 0 -58 -11 -110 -25z m15 -93 c-8 -14 -42 -14 -51 0 -4
7 0 9 14 5 11 -4 23 -2 27 4 4 6 9 9 12 6 3 -2 2 -9 -2 -15z m-165 0 c0 -12
-39 -21 -45 -11 -3 5 3 11 12 13 29 8 33 7 33 -2z m35 -21 c3 -5 -1 -10 -9
-10 -9 0 -16 5 -16 10 0 6 4 10 9 10 6 0 13 -4 16 -10z m-370 -39 c-3 -6 -11
-11 -17 -11 -6 0 -6 6 2 15 14 17 26 13 15 -4z m34 -3 c-9 -16 -14 -19 -17 -9
-2 7 2 17 9 22 20 13 21 11 8 -13z m71 -69 l0 -29 -100 0 -100 0 0 28 c0 16 2
31 4 33 2 2 47 3 100 1 l96 -3 0 -30z"/>
<path d="M9530 1878 c0 -4 19 -8 42 -8 23 0 39 3 35 6 -9 10 -77 12 -77 2z"/>
<path d="M10110 2080 c-9 -6 -10 -10 -3 -10 6 0 15 5 18 10 8 12 4 12 -15 0z"/>
<path d="M10495 2080 c-3 -5 -1 -10 4 -10 6 0 11 5 11 10 0 6 -2 10 -4 10 -3
0 -8 -4 -11 -10z"/>
<path d="M4608 2073 c7 -3 16 -2 19 1 4 3 -2 6 -13 5 -11 0 -14 -3 -6 -6z"/>
<path d="M4883 2008 c-6 -7 -16 -24 -23 -38 l-13 -25 22 20 c27 24 46 55 33
55 -5 0 -14 -6 -19 -12z"/>
<path d="M4450 1930 c0 -19 3 -21 12 -12 9 9 9 15 0 24 -9 9 -12 7 -12 -12z"/>
<path d="M10384 2595 c-8 -19 3 -35 26 -35 19 0 30 17 23 38 -6 17 -42 15 -49
-3z"/>
<path d="M10574 2595 c-8 -19 3 -35 26 -35 19 0 30 17 23 38 -6 17 -42 15 -49
-3z"/>
<path d="M10243 2313 c15 -2 37 -2 50 0 12 2 0 4 -28 4 -27 0 -38 -2 -22 -4z"/>
<path d="M8964 2049 c-8 -13 9 -16 99 -17 71 -1 87 1 87 13 0 13 -16 15 -91
13 -50 -1 -92 -6 -95 -9z"/>
<path d="M6119 1386 c-45 -22 -29 -106 20 -106 30 0 61 30 61 59 0 44 -41 67
-81 47z"/>
<path d="M6470 1360 c0 -15 7 -20 25 -20 18 0 25 5 25 20 0 15 -7 20 -25 20
-18 0 -25 -5 -25 -20z"/>
<path d="M7280 1339 c0 -39 1 -40 33 -37 25 2 33 8 35 26 5 30 -14 52 -44 52
-21 0 -24 -5 -24 -41z"/>
<path d="M7460 1366 c-6 -8 -10 -25 -8 -38 2 -18 10 -24 35 -26 28 -3 33 1 39
23 11 45 -37 75 -66 41z"/>
<path d="M7136 1345 c-3 -9 0 -15 9 -15 16 0 20 16 6 24 -5 3 -11 -1 -15 -9z"/>
<path d="M8850 1360 c0 -16 5 -21 23 -18 12 2 22 10 22 18 0 8 -10 16 -22 18
-18 3 -23 -2 -23 -18z"/>
<path d="M9017 1351 c-3 -14 0 -21 9 -21 16 0 18 9 5 28 -6 10 -10 9 -14 -7z"/>
<path d="M9160 1339 c0 -39 1 -40 33 -37 25 2 33 8 35 26 5 30 -14 52 -44 52
-21 0 -24 -5 -24 -41z"/>
<path d="M9346 1345 c-3 -9 0 -15 9 -15 16 0 20 16 6 24 -5 3 -11 -1 -15 -9z"/>
<path d="M9550 1360 c0 -15 7 -20 25 -20 18 0 25 5 25 20 0 15 -7 20 -25 20
-18 0 -25 -5 -25 -20z"/>
<path d="M9715 1350 c-8 -13 -1 -24 14 -19 6 3 7 10 2 18 -6 10 -10 10 -16 1z"/>
<path d="M9860 1360 c0 -16 5 -21 23 -18 12 2 22 10 22 18 0 8 -10 16 -22 18
-18 3 -23 -2 -23 -18z"/>
<path d="M10450 1345 c0 -8 5 -15 10 -15 6 0 10 7 10 15 0 8 -4 15 -10 15 -5
0 -10 -7 -10 -15z"/>
<path d="M10600 1340 c0 -35 3 -40 24 -40 13 0 29 7 36 15 20 24 -3 65 -35 65
-23 0 -25 -4 -25 -40z"/>
<path d="M10785 1350 c-8 -13 -1 -24 14 -19 6 3 7 10 2 18 -6 10 -10 10 -16 1z"/>
<path d="M6430 1111 c0 -15 6 -21 21 -21 14 0 19 5 17 17 -5 26 -38 29 -38 4z"/>
<path d="M6595 1100 c-4 -6 -2 -17 4 -23 15 -15 25 -2 13 19 -7 12 -11 13 -17
4z"/>
<path d="M9340 1110 c-14 -27 -4 -60 20 -60 21 0 33 36 19 62 -13 24 -26 23
-39 -2z"/>
<path d="M5660 1125 c-32 -38 -4 -95 46 -95 25 0 54 34 54 62 0 41 -73 66
-100 33z"/>
<path d="M6276 1094 c-9 -22 -8 -24 9 -24 8 0 15 6 15 14 0 22 -17 28 -24 10z"/>
<path d="M7127 1103 c-12 -12 -7 -33 8 -33 17 0 19 9 7 28 -5 7 -11 9 -15 5z"/>
<path d="M8805 1100 l-16 -30 30 0 c29 0 30 1 20 30 -6 17 -13 30 -15 30 -2 0
-10 -13 -19 -30z"/>
<path d="M9845 1116 c-26 -39 2 -86 51 -86 20 0 54 37 54 59 0 50 -77 70 -105
27z"/>
<path d="M10242 1105 c-16 -35 -16 -35 13 -35 28 0 32 17 12 44 -12 17 -14 16
-25 -9z"/>
<path d="M10370 1110 c0 -30 2 -31 38 -28 32 3 37 6 37 28 0 22 -5 25 -37 28
-36 3 -38 2 -38 -28z"/>
<path d="M10656 1103 l-17 -33 31 0 c26 0 29 3 22 18 -5 9 -11 24 -14 32 -3
10 -10 5 -22 -17z"/>
<path d="M10790 1125 c-18 -22 -15 -66 6 -82 56 -41 127 32 78 81 -20 20 -68
21 -84 1z"/>
<path d="M5327 623 c-4 -3 -7 -15 -7 -25 0 -22 45 -26 53 -4 9 24 -28 47 -46
29z"/>
<path d="M5480 605 c0 -18 5 -25 19 -25 23 0 34 23 18 39 -19 19 -37 12 -37
-14z"/>
<path d="M5927 609 c-20 -28 -10 -58 21 -66 42 -10 68 40 36 71 -21 22 -40 20
-57 -5z"/>
<path d="M6306 585 c-4 -10 1 -15 14 -15 13 0 18 5 14 15 -4 8 -10 15 -14 15
-4 0 -10 -7 -14 -15z"/>
<path d="M6460 615 c0 -8 9 -15 19 -15 26 0 35 16 15 24 -25 10 -34 7 -34 -9z"/>
<path d="M6460 556 c0 -11 9 -16 26 -16 31 0 28 23 -4 28 -15 2 -22 -2 -22
-12z"/>
<path d="M6626 585 c-4 -10 1 -15 14 -15 13 0 18 5 14 15 -4 8 -10 15 -14 15
-4 0 -10 -7 -14 -15z"/>
<path d="M6996 614 c-32 -31 -6 -81 36 -71 31 8 41 38 21 66 -17 25 -36 27
-57 5z"/>
<path d="M7210 585 l0 -55 39 0 c44 0 64 17 64 57 0 33 -27 53 -70 53 l-33 0
0 -55z"/>
<path d="M7407 613 c-2 -10 -8 -25 -11 -34 -5 -12 0 -16 23 -16 27 0 28 2 18
26 -16 38 -24 44 -30 24z"/>
<path d="M8416 585 c-4 -10 1 -15 14 -15 13 0 18 5 14 15 -4 8 -10 15 -14 15
-4 0 -10 -7 -14 -15z"/>
<path d="M8570 605 c0 -18 5 -25 19 -25 23 0 34 23 18 39 -19 19 -37 12 -37
-14z"/>
<path d="M8720 605 c0 -18 5 -25 20 -25 25 0 38 29 19 41 -25 15 -39 10 -39
-16z"/>
<path d="M8875 606 c-19 -29 -10 -54 23 -63 42 -10 68 40 36 71 -22 22 -41 20
-59 -8z"/>
<path d="M9207 590 c-3 -13 0 -20 9 -20 15 0 19 26 5 34 -5 3 -11 -3 -14 -14z"/>
<path d="M9517 590 c-3 -13 0 -20 9 -20 15 0 19 26 5 34 -5 3 -11 -3 -14 -14z"/>
<path d="M9665 606 c-19 -29 -10 -54 23 -63 42 -10 68 40 36 71 -22 22 -41 20
-59 -8z"/>
<path d="M10310 585 c0 -34 4 -45 16 -45 54 0 76 62 28 80 -40 16 -44 13 -44
-35z"/>
<path d="M10566 595 c-9 -23 -8 -25 9 -25 17 0 19 9 6 28 -7 11 -10 10 -15 -3z"/>
<path d="M10845 597 c-8 -19 -2 -31 13 -26 5 2 6 13 2 24 -7 19 -8 19 -15 2z"/>
<path d="M5467 345 c-8 -20 -4 -29 11 -24 5 2 6 13 2 23 -6 19 -7 19 -13 1z"/>
<path d="M5610 365 c0 -9 9 -15 25 -15 28 0 34 15 9 24 -25 10 -34 7 -34 -9z"/>
<path d="M5610 305 c0 -9 9 -15 24 -15 30 0 42 15 20 24 -27 10 -44 7 -44 -9z"/>
<path d="M6057 345 c-8 -20 -4 -29 11 -24 5 2 6 13 2 23 -6 19 -7 19 -13 1z"/>
<path d="M6460 355 c0 -18 5 -25 20 -25 25 0 38 29 19 41 -25 15 -39 10 -39
-16z"/>
<path d="M8390 329 l0 -62 36 6 c47 8 64 23 64 57 0 35 -28 60 -68 60 l-32 0
0 -61z"/>
<path d="M8582 383 c-7 -3 -18 -16 -23 -30 -21 -55 53 -99 95 -57 43 43 -13
111 -72 87z"/>
<path d="M8950 355 c0 -30 3 -35 24 -35 21 0 56 22 56 35 0 13 -35 35 -56 35
-21 0 -24 -5 -24 -35z"/>
<path d="M9240 329 l0 -62 36 6 c47 8 64 23 64 58 0 33 -32 59 -72 59 -28 0
-28 -1 -28 -61z"/>
<path d="M9612 383 c-7 -3 -18 -16 -23 -30 -21 -55 53 -99 95 -57 43 43 -13
111 -72 87z"/>
</g>
</svg>
